<svg width="32" height="32" viewBox="0 0 32 32" fill="none" xmlns="http://www.w3.org/2000/svg">
<g clip-path="url(#clip0_709_1614)">
<path d="M20 14H28C29.1 13.99 29.99 13.1 30 12V4C29.99 2.89 29.1 2 28 2H20C18.89 2 18 2.89 18 4H9C7.89 4 7 4.89 7 6V10H4C2.89 10 2 10.89 2 12V20C2 21.1 2.89 21.99 4 22H6V26C6 27.1 6.89 27.99 8 28H18C18 29.1 18.89 29.99 20 30H28C29.1 29.99 29.99 29.1 30 28V20C29.99 18.89 29.1 18 28 18H20C18.89 18 18 18.89 18 20V26H8V22H12C13.1 21.99 13.99 21.1 14 20V12V11.999C13.99 10.889 13.1 9.999 12 9.999H9V5.999H18V11.999C18 13.099 18.89 13.988 20 13.998V14ZM20 28V24H28V28H20ZM28 20V22H20V20H28ZM4 20V16H12V20H4ZM12 14H3.99V12H11.99L12 14ZM19.99 12V8H27.99V12H19.99ZM27.99 4V6H19.99V4H27.99Z" fill="#3959FF"/>
</g>
<defs>
<clipPath id="clip0_709_1614">
<rect width="32" height="32" fill="white"/>
</clipPath>
</defs>
</svg>
