<svg width="32" height="32" viewBox="0 0 32 32" fill="none" xmlns="http://www.w3.org/2000/svg">
<g clip-path="url(#clip0_712_2927)">
<path d="M9 12V10H4C2.89 10 2 10.89 2 12V28C2 29.1 2.89 30 4 30H20C21.1 30 22 29.1 22 28V19H20V28H4V12" fill="#3959FF"/>
<path d="M22 12H14V4H22V12ZM12 4V12C12 13.1 12.89 14 14 14H22C23.1 14 24 13.1 24 12V4C24 2.89 23.1 2 22 2H14C12.89 2 12 2.89 12 4Z" fill="#3959FF"/>
<path d="M14 18V22H10V18H14ZM8 18V22C8 23.1 8.89 24 10 24H14C15.1 24 16 23.1 16 22V18C16 16.89 15.1 16 14 16H10C8.89 16 8 16.89 8 18Z" fill="#3959FF"/>
<path d="M28 17V19H26V17H28ZM24 16V20C24 20.55 24.44 21 25 21H29C29.55 21 30 20.55 30 20V16C30 15.44 29.55 15 29 15H25C24.44 15 24 15.44 24 16Z" fill="#3959FF"/>
</g>
<defs>
<clipPath id="clip0_712_2927">
<rect width="32" height="32" fill="white"/>
</clipPath>
</defs>
</svg>
