<svg width="588" height="395" viewBox="0 0 588 395" fill="none" xmlns="http://www.w3.org/2000/svg">
<g clip-path="url(#clip0_713_1109)">
<rect width="588" height="395" fill="#217DB0"/>
<circle opacity="0.2" cx="293.5" cy="197.5" r="76.5" fill="url(#paint0_linear_713_1109)"/>
<circle opacity="0.2" cx="293.5" cy="201.5" r="119.5" fill="url(#paint1_linear_713_1109)"/>
<circle opacity="0.2" cx="293.5" cy="201.5" r="162.5" fill="url(#paint2_linear_713_1109)"/>
<circle opacity="0.2" cx="293.5" cy="201.5" r="207.5" fill="url(#paint3_linear_713_1109)"/>
<circle opacity="0.2" cx="294.5" cy="197.5" r="252.5" fill="url(#paint4_linear_713_1109)"/>
<circle opacity="0.2" cx="294.5" cy="197.5" r="298.5" fill="url(#paint5_linear_713_1109)"/>
<circle opacity="0.2" cx="294.5" cy="197.5" r="337.5" fill="url(#paint6_linear_713_1109)"/>
<g clip-path="url(#clip1_713_1109)">
<path d="M314.676 227L311.196 225L315.756 217H307.976L315.956 203L319.416 205L314.836 213H322.616L314.616 227H314.676Z" fill="white"/>
<path d="M278 193H286V197H278V193Z" fill="white"/>
<path d="M302 193H310V197H302V193Z" fill="white"/>
<path d="M278 201H286V205H278V201Z" fill="white"/>
<path d="M290 201H298V205H290V201Z" fill="white"/>
<path d="M290 209H298V213H290V209Z" fill="white"/>
<path d="M272 187H316V197H320V175C320 172.78 318.2 171 316 171H272C269.78 171 268 172.78 268 175V219C268 221.2 269.78 223 272 223H302V219H272V187ZM316 175V183H272V175H316Z" fill="white"/>
</g>
</g>
<defs>
<linearGradient id="paint0_linear_713_1109" x1="293.5" y1="121" x2="293.5" y2="274" gradientUnits="userSpaceOnUse">
<stop stop-color="white"/>
<stop offset="1" stop-color="white" stop-opacity="0"/>
</linearGradient>
<linearGradient id="paint1_linear_713_1109" x1="293.5" y1="82" x2="293.5" y2="321" gradientUnits="userSpaceOnUse">
<stop stop-color="white"/>
<stop offset="1" stop-color="white" stop-opacity="0"/>
</linearGradient>
<linearGradient id="paint2_linear_713_1109" x1="293.5" y1="39" x2="293.5" y2="364" gradientUnits="userSpaceOnUse">
<stop stop-color="white"/>
<stop offset="1" stop-color="white" stop-opacity="0"/>
</linearGradient>
<linearGradient id="paint3_linear_713_1109" x1="293.5" y1="-6" x2="293.5" y2="409" gradientUnits="userSpaceOnUse">
<stop stop-color="white"/>
<stop offset="1" stop-color="white" stop-opacity="0"/>
</linearGradient>
<linearGradient id="paint4_linear_713_1109" x1="294.5" y1="-55" x2="294.5" y2="450" gradientUnits="userSpaceOnUse">
<stop stop-color="white"/>
<stop offset="1" stop-color="white" stop-opacity="0"/>
</linearGradient>
<linearGradient id="paint5_linear_713_1109" x1="294.5" y1="-101" x2="294.5" y2="496" gradientUnits="userSpaceOnUse">
<stop stop-color="white"/>
<stop offset="1" stop-color="white" stop-opacity="0"/>
</linearGradient>
<linearGradient id="paint6_linear_713_1109" x1="294.5" y1="-140" x2="294.5" y2="535" gradientUnits="userSpaceOnUse">
<stop stop-color="white"/>
<stop offset="1" stop-color="white" stop-opacity="0"/>
</linearGradient>
<clipPath id="clip0_713_1109">
<rect width="588" height="395" fill="white"/>
</clipPath>
<clipPath id="clip1_713_1109">
<rect width="64" height="64" fill="white" transform="translate(262 165)"/>
</clipPath>
</defs>
</svg>
