<svg width="588" height="395" viewBox="0 0 588 395" fill="none" xmlns="http://www.w3.org/2000/svg">
<g clip-path="url(#clip0_713_580)">
<rect width="588" height="395" fill="#008726"/>
<circle opacity="0.2" cx="293.5" cy="197.5" r="76.5" fill="url(#paint0_linear_713_580)"/>
<circle opacity="0.2" cx="293.5" cy="201.5" r="119.5" fill="url(#paint1_linear_713_580)"/>
<circle opacity="0.2" cx="293.5" cy="201.5" r="162.5" fill="url(#paint2_linear_713_580)"/>
<circle opacity="0.2" cx="293.5" cy="201.5" r="207.5" fill="url(#paint3_linear_713_580)"/>
<circle opacity="0.2" cx="294.5" cy="197.5" r="252.5" fill="url(#paint4_linear_713_580)"/>
<circle opacity="0.2" cx="294.5" cy="197.5" r="298.5" fill="url(#paint5_linear_713_580)"/>
<circle opacity="0.2" cx="294.5" cy="197.5" r="337.5" fill="url(#paint6_linear_713_580)"/>
<g clip-path="url(#clip1_713_580)">
<path d="M284 213H304V217H284V213Z" fill="white"/>
<path d="M288 221H300V225H288V221Z" fill="white"/>
<path d="M283.62 201.28C279.8 198.36 277.7 193.76 277.98 188.98C277.98 180.14 285.14 172.98 293.98 172.98V168.98C282.92 168.98 273.98 177.92 273.98 188.98C273.7 194.86 276.26 200.538 280.9 204.198C282.92 206.058 283.98 207.118 283.98 208.958H287.98C287.98 205.278 285.74 203.218 283.6 201.238L283.62 201.28Z" fill="white"/>
<path d="M304 184.18L296.82 177L294 179.82L304 189.82L322 171.82L319.18 169L304 184.18Z" fill="white"/>
<path d="M309.6 193C308.86 196.28 307 199.2 304.34 201.28C302.18 203.26 299.98 205.3 299.98 208.98H303.98C303.98 207.14 305.02 206.08 307.04 204.2C310.54 201.38 312.88 197.38 313.64 192.96L309.6 193Z" fill="white"/>
</g>
</g>
<defs>
<linearGradient id="paint0_linear_713_580" x1="293.5" y1="121" x2="293.5" y2="274" gradientUnits="userSpaceOnUse">
<stop stop-color="white"/>
<stop offset="1" stop-color="white" stop-opacity="0"/>
</linearGradient>
<linearGradient id="paint1_linear_713_580" x1="293.5" y1="82" x2="293.5" y2="321" gradientUnits="userSpaceOnUse">
<stop stop-color="white"/>
<stop offset="1" stop-color="white" stop-opacity="0"/>
</linearGradient>
<linearGradient id="paint2_linear_713_580" x1="293.5" y1="39" x2="293.5" y2="364" gradientUnits="userSpaceOnUse">
<stop stop-color="white"/>
<stop offset="1" stop-color="white" stop-opacity="0"/>
</linearGradient>
<linearGradient id="paint3_linear_713_580" x1="293.5" y1="-6" x2="293.5" y2="409" gradientUnits="userSpaceOnUse">
<stop stop-color="white"/>
<stop offset="1" stop-color="white" stop-opacity="0"/>
</linearGradient>
<linearGradient id="paint4_linear_713_580" x1="294.5" y1="-55" x2="294.5" y2="450" gradientUnits="userSpaceOnUse">
<stop stop-color="white"/>
<stop offset="1" stop-color="white" stop-opacity="0"/>
</linearGradient>
<linearGradient id="paint5_linear_713_580" x1="294.5" y1="-101" x2="294.5" y2="496" gradientUnits="userSpaceOnUse">
<stop stop-color="white"/>
<stop offset="1" stop-color="white" stop-opacity="0"/>
</linearGradient>
<linearGradient id="paint6_linear_713_580" x1="294.5" y1="-140" x2="294.5" y2="535" gradientUnits="userSpaceOnUse">
<stop stop-color="white"/>
<stop offset="1" stop-color="white" stop-opacity="0"/>
</linearGradient>
<clipPath id="clip0_713_580">
<rect width="588" height="395" fill="white"/>
</clipPath>
<clipPath id="clip1_713_580">
<rect width="64" height="64" fill="white" transform="translate(262 165)"/>
</clipPath>
</defs>
</svg>
