<svg width="588" height="395" viewBox="0 0 588 395" fill="none" xmlns="http://www.w3.org/2000/svg">
<g clip-path="url(#clip0_713_1124)">
<rect width="588" height="395" fill="#3959FF"/>
<circle opacity="0.2" cx="293.5" cy="197.5" r="76.5" fill="url(#paint0_linear_713_1124)"/>
<circle opacity="0.2" cx="293.5" cy="201.5" r="119.5" fill="url(#paint1_linear_713_1124)"/>
<circle opacity="0.2" cx="293.5" cy="201.5" r="162.5" fill="url(#paint2_linear_713_1124)"/>
<circle opacity="0.2" cx="293.5" cy="201.5" r="207.5" fill="url(#paint3_linear_713_1124)"/>
<circle opacity="0.2" cx="294.5" cy="197.5" r="252.5" fill="url(#paint4_linear_713_1124)"/>
<circle opacity="0.2" cx="294.5" cy="197.5" r="298.5" fill="url(#paint5_linear_713_1124)"/>
<circle opacity="0.2" cx="294.5" cy="197.5" r="337.5" fill="url(#paint6_linear_713_1124)"/>
<g clip-path="url(#clip1_713_1124)">
<path d="M302 205H322V209H302V205Z" fill="white"/>
<path d="M302 213H322V217H302V213Z" fill="white"/>
<path d="M302 221H322V225H302V221Z" fill="white"/>
<path d="M294 205H293.998C289.658 205.08 286.078 201.66 285.998 197.34C285.978 197.22 285.978 197.1 285.998 196.98C285.898 192.64 289.318 189.06 293.638 188.98C293.738 188.96 293.858 188.96 293.978 188.98C298.298 188.88 301.878 192.3 301.978 196.62C301.978 196.72 301.978 196.84 301.978 196.96H305.978C305.978 190.32 300.598 184.96 293.978 184.96C287.338 184.96 281.978 190.32 281.978 196.96C281.978 203.58 287.338 208.96 293.978 208.96L294 205Z" fill="white"/>
<path d="M320.6 187.08L315.86 178.9V178.88C314.9 177.22 312.92 176.46 311.1 177.08L306.22 178.72C305.38 178.14 304.5 177.64 303.58 177.2L302.56 172.16C302.18 170.28 300.54 168.94 298.62 168.94H289.18C287.26 168.94 285.62 170.28 285.24 172.14L284.22 177.16C283.3 177.6 282.4 178.1 281.56 178.66L276.72 177.02C274.9 176.4 272.92 177.14 271.96 178.8L267.22 186.96C266.26 188.6 266.6 190.7 268.04 191.96L271.9 195.34C271.86 195.84 271.82 196.34 271.82 196.84C271.82 197.34 271.84 197.86 271.86 198.36L268 201.736C266.56 202.976 266.22 205.076 267.16 206.736L271.88 214.896C272.82 216.536 274.8 217.296 276.62 216.676L281.48 215C282.3 215.56 283.18 216.06 284.1 216.5L285.1 221.52C285.46 223.38 287.1 224.72 289.02 224.72H293.74V220.72H289.02L287.6 213.6C285.62 212.86 283.8 211.8 282.2 210.44L275.3 212.76L270.58 204.58L276.02 199.78H276C275.62 197.7 275.62 195.58 275.98 193.52L270.54 188.74L275.26 180.56L282.1 182.86C283.7 181.5 285.54 180.44 287.52 179.72L288.94 172.6H298.38L299.8 179.7C301.76 180.42 303.58 181.48 305.18 182.84L312.06 180.5L316.78 188.66L311.18 193.56L313.8 196.56L319.4 191.64C320.82 190.38 321.16 188.28 320.22 186.62L320.6 187.08Z" fill="white"/>
</g>
</g>
<defs>
<linearGradient id="paint0_linear_713_1124" x1="293.5" y1="121" x2="293.5" y2="274" gradientUnits="userSpaceOnUse">
<stop stop-color="white"/>
<stop offset="1" stop-color="white" stop-opacity="0"/>
</linearGradient>
<linearGradient id="paint1_linear_713_1124" x1="293.5" y1="82" x2="293.5" y2="321" gradientUnits="userSpaceOnUse">
<stop stop-color="white"/>
<stop offset="1" stop-color="white" stop-opacity="0"/>
</linearGradient>
<linearGradient id="paint2_linear_713_1124" x1="293.5" y1="39" x2="293.5" y2="364" gradientUnits="userSpaceOnUse">
<stop stop-color="white"/>
<stop offset="1" stop-color="white" stop-opacity="0"/>
</linearGradient>
<linearGradient id="paint3_linear_713_1124" x1="293.5" y1="-6" x2="293.5" y2="409" gradientUnits="userSpaceOnUse">
<stop stop-color="white"/>
<stop offset="1" stop-color="white" stop-opacity="0"/>
</linearGradient>
<linearGradient id="paint4_linear_713_1124" x1="294.5" y1="-55" x2="294.5" y2="450" gradientUnits="userSpaceOnUse">
<stop stop-color="white"/>
<stop offset="1" stop-color="white" stop-opacity="0"/>
</linearGradient>
<linearGradient id="paint5_linear_713_1124" x1="294.5" y1="-101" x2="294.5" y2="496" gradientUnits="userSpaceOnUse">
<stop stop-color="white"/>
<stop offset="1" stop-color="white" stop-opacity="0"/>
</linearGradient>
<linearGradient id="paint6_linear_713_1124" x1="294.5" y1="-140" x2="294.5" y2="535" gradientUnits="userSpaceOnUse">
<stop stop-color="white"/>
<stop offset="1" stop-color="white" stop-opacity="0"/>
</linearGradient>
<clipPath id="clip0_713_1124">
<rect width="588" height="395" fill="white"/>
</clipPath>
<clipPath id="clip1_713_1124">
<rect width="64" height="64" fill="white" transform="translate(262 165)"/>
</clipPath>
</defs>
</svg>
