<svg width="18" height="18" viewBox="0 0 18 18" fill="none" xmlns="http://www.w3.org/2000/svg">
<path d="M3.74999 13.5V16.32L4.88249 15.6375L8.45399 13.4925H11.994C12.819 13.4925 13.494 12.8175 13.494 11.9925V5.99252C13.494 5.16002 12.819 4.49252 11.994 4.49252H2.99399C2.16149 4.49252 1.49399 5.16002 1.49399 5.99252V11.9925C1.49399 12.8175 2.16149 13.4925 2.99399 13.4925H3.74399L3.74999 13.5ZM2.99999 6.00002H12V12H8.03999L5.24249 13.6725V11.9925H2.99249V5.99252L2.99999 6.00002Z" fill="white"/>
<path d="M15 1.50001H14.25H12.7425H5.99249C5.15999 1.50001 4.49249 2.16751 4.49249 3.00001H12.4275H13.485C14.31 3.00001 14.985 3.66751 14.985 4.50001V5.55751V8.99701V10.497C15.81 10.497 16.485 9.82201 16.485 8.99701V5.24701V3.74701V2.99701C16.485 2.16451 15.81 1.49701 14.985 1.49701L15 1.50001Z" fill="white"/>
</svg>
