<svg width="24" height="24" viewBox="0 0 24 24" fill="none" xmlns="http://www.w3.org/2000/svg">
<path d="M20.99 6.89999C20.95 6.54999 20.74 6.24999 20.44 6.09999L12.44 2.09999C12.15 1.94999 11.82 1.94999 11.54 2.09899L3.54 6.09899C3.23 6.24899 3.02 6.54899 2.99 6.88899C2.97 6.98899 2.02 17.649 11.57 21.899C11.69 21.949 11.83 21.979 11.97 21.979C12.1 21.979 12.24 21.949 12.37 21.889C21.92 17.642 20.97 6.97899 20.95 6.86899L20.99 6.89999ZM11.99 19.89C5.22 16.61 4.9 9.62999 4.95 7.61999L11.99 4.09999L19.019 7.60999C19.049 9.58999 18.689 16.62 11.99 19.87V19.89Z" fill="#3959FF"/>
<path d="M11 12.586L8.7 10.286L7.28 11.696L10.98 15.396L16.68 9.68599L15.26 8.26599L11 12.586Z" fill="#3959FF"/>
</svg>
