<svg width="18" height="18" viewBox="0 0 18 18" fill="none" xmlns="http://www.w3.org/2000/svg">
<path d="M12.42 16.4992H12.435C12.825 16.4992 13.2 16.3417 13.485 16.0567L15.5175 14.0167C15.81 13.7167 15.81 13.2442 15.5175 12.9517L12.5175 9.95175C12.2175 9.6585 11.745 9.6585 11.4525 9.95175L10.2525 11.1442C9.69751 10.9792 8.66251 10.6042 8.00251 9.94425C7.34251 9.28425 6.96751 8.2545 6.80251 7.69425L7.99501 6.49425C8.28751 6.201 8.28751 5.72175 7.99501 5.42925L4.99501 2.42925C4.71376 2.148 4.21501 2.148 3.93001 2.42925L1.89001 4.455C1.60501 4.74 1.44001 5.13 1.44751 5.5275C1.46251 6.5925 1.74751 10.305 4.67101 13.2225C7.58851 16.14 11.301 16.425 12.366 16.44L12.42 16.4992ZM4.49251 4.0425L6.42751 5.9775L5.45251 6.945C5.27251 7.1175 5.19001 7.38 5.24251 7.6275C5.25751 7.71 5.70001 9.7575 6.94501 11.0025C8.19001 12.2475 10.23 12.6877 10.32 12.705C10.5675 12.7575 10.8225 12.675 11.0025 12.495L11.97 11.52L13.905 13.455L12.3975 14.955C11.46 14.9325 8.25751 14.685 5.73751 12.165C3.21001 9.6375 2.96251 6.42675 2.94751 5.505L4.44751 4.005L4.49251 4.0425ZM14.985 8.235H16.485C16.485 4.3875 13.575 1.48575 9.72751 1.48575V2.98575C12.7725 2.98575 14.985 5.19075 14.985 8.22825V8.235Z" fill="white"/>
<path d="M9.74249 6C11.3175 6 11.9925 6.6675 11.9925 8.25H13.4925C13.4925 5.8275 12.1575 4.5 9.74249 4.5V6Z" fill="white"/>
</svg>
