<svg width="24" height="24" viewBox="0 0 24 24" fill="none" xmlns="http://www.w3.org/2000/svg">
<path d="M12 1.99994C6.48 1.99994 2 6.47994 2 11.9999V12.7099V15.9899V16.1299C2 17.1499 2.89 17.9799 4 17.9799H5C5.55 17.9799 6 17.5299 6 16.9799V11.8299C6 11.2699 5.55 10.8299 5 10.8299H4.09C4.646 6.95994 7.97 3.96994 11.998 3.96994C16.018 3.96994 19.35 6.95694 19.898 10.8199H18.988C18.428 10.8199 17.988 11.2599 17.988 11.8199V15.9599V16.9599V17.9599C17.988 19.0599 17.088 19.9599 15.988 19.9599H13.988V18.9599H9.988V21.9599H11.988H13.988H15.988C18.188 21.9599 19.988 20.1599 19.988 17.9599C21.088 17.9599 21.988 17.1199 21.988 16.0999V15.9499V12.6599V11.9399C21.988 6.41994 17.498 1.93994 11.988 1.93994L12 1.99994Z" fill="#3959FF"/>
</svg>
