<svg width="18" height="18" viewBox="0 0 18 18" fill="none" xmlns="http://www.w3.org/2000/svg">
<path d="M9 1.5C4.86 1.5 1.5 4.86 1.5 9C1.5 13.1325 4.86 16.5 9 16.5C13.1325 16.5 16.5 13.1325 16.5 9C16.5 4.86 13.1325 1.5 9 1.5ZM3 9C3 8.325 3.1125 7.6725 3.3225 7.0725L4.49925 8.2425L5.99925 9.7425V11.2425L7.49925 12.7425L8.24925 13.4925V14.94C5.295 14.565 2.99925 12.045 2.99925 8.985L3 9ZM13.7475 12.6525C13.2525 12.255 12.51 11.9925 12 11.9925V11.2425C12 10.41 11.325 9.7425 10.5 9.7425H7.5V8.2425V7.4925C8.325 7.4925 9 6.8175 9 5.9925V5.2425H9.75C10.575 5.2425 11.25 4.5675 11.25 3.7425V3.4275C13.44 4.31925 15 6.47325 15 8.98575C15 10.3582 14.5275 11.6257 13.7475 12.6382V12.6525Z" fill="white"/>
</svg>
