<svg width="22" height="22" viewBox="0 0 22 22" fill="none" xmlns="http://www.w3.org/2000/svg">
<path d="M19.25 3.66672H4.58331H3.66665H1.83331V5.50005H3.66665H3.94165L6.95015 13.773C7.33515 14.8546 8.38015 15.5788 9.53423 15.5788H17.4166V13.7455H9.53423C9.14923 13.7455 8.8009 13.498 8.67256 13.1405L8.2234 11.903H16.7209C17.5367 11.903 18.2609 11.353 18.4809 10.5646L20.1217 4.81347C20.1951 4.5293 20.1401 4.23597 19.9659 4.0068C19.7917 3.76847 19.5167 3.64014 19.2326 3.64014L19.25 3.66672ZM16.72 10.0834H7.55331L5.88498 5.50005H18.0216L16.7108 10.0834H16.72Z" fill="white"/>
<path d="M9.625 16.5C9.26033 16.5 8.91059 16.6449 8.65273 16.9027C8.39487 17.1606 8.25 17.5103 8.25 17.875C8.25 18.2397 8.39487 18.5894 8.65273 18.8473C8.91059 19.1051 9.26033 19.25 9.625 19.25C9.98967 19.25 10.3394 19.1051 10.5973 18.8473C10.8551 18.5894 11 18.2397 11 17.875C11 17.5103 10.8551 17.1606 10.5973 16.9027C10.3394 16.6449 9.98967 16.5 9.625 16.5Z" fill="white"/>
<path d="M15.125 16.5C14.7603 16.5 14.4106 16.6449 14.1527 16.9027C13.8949 17.1606 13.75 17.5103 13.75 17.875C13.75 18.2397 13.8949 18.5894 14.1527 18.8473C14.4106 19.1051 14.7603 19.25 15.125 19.25C15.4897 19.25 15.8394 19.1051 16.0973 18.8473C16.3551 18.5894 16.5 18.2397 16.5 17.875C16.5 17.5103 16.3551 17.1606 16.0973 16.9027C15.8394 16.6449 15.4897 16.5 15.125 16.5Z" fill="white"/>
</svg>
