<svg width="141" height="31" viewBox="0 0 141 31" fill="none" xmlns="http://www.w3.org/2000/svg">
<g clip-path="url(#clip0_721_37)">
<path d="M26.0165 6.31169H25.9534C24.4898 6.30423 23.0424 6.61899 21.7141 7.23365C20.3857 7.8483 19.2089 8.74778 18.2672 9.86826C17.3257 8.74735 16.149 7.84742 14.8206 7.23235C13.4922 6.61727 12.0447 6.30214 10.5809 6.30931H10.5333C7.97404 6.27812 5.50643 7.26112 3.66963 9.04356C1.83283 10.826 0.776152 13.263 0.730469 15.822C0.77643 18.3894 1.83977 20.8334 3.68682 22.6171C5.53387 24.4009 8.01352 25.3783 10.5809 25.3348C11.3369 25.3355 12.0907 25.2522 12.8283 25.0862C12.8877 25.0732 12.9472 25.0517 13.0043 25.0375C13.2968 24.9661 13.5869 24.8877 13.8675 24.7913C14.0376 24.7331 14.2005 24.6593 14.367 24.5916C14.5334 24.5238 14.6963 24.4727 14.8557 24.3918C15.1256 24.2658 15.3884 24.1219 15.6464 23.9721C15.694 23.9447 15.7451 23.9209 15.7915 23.8936C16.7291 23.3264 17.5665 22.608 18.2695 21.7675C18.9732 22.6075 19.8104 23.3258 20.7476 23.8936C20.7952 23.9209 20.8451 23.9447 20.8927 23.9721C21.1507 24.1219 21.4135 24.2658 21.6834 24.3918C21.8428 24.4667 22.0092 24.5262 22.1733 24.5916C22.3374 24.657 22.5015 24.7331 22.6716 24.7913C22.9534 24.8877 23.2423 24.9661 23.536 25.0375C23.5943 25.0517 23.6549 25.0732 23.7108 25.0862C24.4484 25.2521 25.2022 25.3354 25.9582 25.3348C28.5256 25.3783 31.0052 24.4009 32.8523 22.6171C34.6993 20.8334 35.7627 18.3894 35.8086 15.822C35.7629 13.2651 34.7077 10.83 32.8731 9.0482C31.0386 7.26645 28.5737 6.28271 26.0165 6.31169ZM25.9534 21.7699C25.0125 21.7777 24.0814 21.5777 23.2267 21.1841C22.372 20.7905 21.6148 20.2129 21.0092 19.4928L18.2648 16.1954L15.5216 19.4928C14.9157 20.2129 14.1582 20.7903 13.3033 21.1837C12.4484 21.5771 11.5172 21.7769 10.5761 21.7687C8.9554 21.8103 7.38422 21.208 6.2066 20.0936C5.02899 18.9793 4.34089 17.4438 4.29298 15.8232C4.34058 14.2026 5.02858 12.6668 6.20627 11.5524C7.38395 10.438 8.95531 9.83586 10.5761 9.87777C11.5171 9.86942 12.4483 10.069 13.3032 10.4622C14.1581 10.8554 14.9156 11.4326 15.5216 12.1525L18.2648 15.4498L21.0092 12.1525C21.615 11.4325 22.3722 10.8552 23.2269 10.4618C24.0816 10.0684 25.0126 9.86855 25.9534 9.87658C27.5743 9.83467 29.1456 10.4369 30.3233 11.5512C31.501 12.6656 32.189 14.2014 32.2366 15.822C32.189 17.4428 31.501 18.9786 30.3234 20.0932C29.1457 21.2078 27.5744 21.8103 25.9534 21.7687V21.7699Z" fill="#9A9D9E"/>
<path d="M47.0352 30.1255V7.58751H50.9199V10.2844C51.4616 9.37982 52.2307 8.63287 53.1506 8.11784C54.1363 7.53202 55.2634 7.22691 56.4099 7.23554C57.4149 7.20718 58.414 7.39775 59.338 7.79403C60.262 8.19031 61.0887 8.78282 61.7608 9.53048C63.2361 11.2659 63.989 13.5013 63.8643 15.7756V16.0324C63.9848 18.326 63.2439 20.5817 61.787 22.3572C61.1205 23.1219 60.2922 23.7288 59.3623 24.1339C58.4323 24.5391 57.4238 24.7323 56.4099 24.6997C55.2444 24.7236 54.0931 24.4411 53.071 23.8804C52.1629 23.3889 51.416 22.6457 50.9199 21.7401V30.1255H47.0352ZM55.4468 21.6176C56.0676 21.6555 56.6887 21.5475 57.2603 21.3022C57.8318 21.0569 58.338 20.6811 58.7382 20.2049C59.575 19.0049 59.9769 17.555 59.8773 16.0954V15.8386C59.9777 14.3593 59.5383 12.8938 58.6407 11.7136C58.2446 11.2485 57.7488 10.8786 57.1901 10.6316C56.6313 10.3845 56.0241 10.2667 55.4135 10.2867C54.7835 10.2619 54.1558 10.377 53.5756 10.6238C52.9954 10.8705 52.4771 11.2427 52.0579 11.7136C51.1396 12.8846 50.6872 14.354 50.7879 15.8386V16.0954C50.6824 17.5748 51.1237 19.0414 52.0281 20.2168C52.4594 20.688 52.9895 21.058 53.5805 21.3002C54.1716 21.5423 54.8089 21.6507 55.4468 21.6176ZM67.3579 24.3786V7.58751H71.2403V10.7338C71.7046 9.68521 72.473 8.80018 73.4462 8.1934C74.4193 7.58663 75.5522 7.28607 76.6982 7.33066V10.9586C75.2517 10.8733 73.8162 11.256 72.6042 12.0502C72.1121 12.5016 71.7325 13.0619 71.4957 13.6863C71.2589 14.3106 71.1714 14.9818 71.2403 15.646V24.3786H67.3579ZM80.2001 24.3786V7.58751H84.0824V24.3786H80.2001ZM83.7317 4.18433C83.5146 4.39414 83.2582 4.5589 82.9772 4.66911C82.6961 4.77931 82.3961 4.83279 82.0943 4.82644C81.7925 4.83279 81.4924 4.77931 81.2114 4.66911C80.9304 4.5589 80.6739 4.39414 80.4569 4.18433C80.2398 3.98462 80.0674 3.74116 79.9512 3.47C79.835 3.19884 79.7776 2.90613 79.7827 2.61117C79.7753 2.31116 79.8316 2.01299 79.9478 1.7363C80.064 1.45962 80.2375 1.21068 80.4569 1.00589C80.6739 0.796085 80.9304 0.631325 81.2114 0.521119C81.4924 0.410912 81.7925 0.35744 82.0943 0.363787C82.3961 0.35744 82.6961 0.410912 82.9772 0.521119C83.2582 0.631325 83.5146 0.796085 83.7317 1.00589C83.951 1.21068 84.1245 1.45962 84.2407 1.7363C84.3569 2.01299 84.4132 2.31116 84.4059 2.61117C84.411 2.90613 84.3536 3.19884 84.2374 3.47C84.1211 3.74116 83.9488 3.98462 83.7317 4.18433ZM94.5464 24.6997C92.7424 24.805 90.9559 24.2957 89.4785 23.255C88.8663 22.7596 88.3726 22.1336 88.0338 21.4227C87.6949 20.7118 87.5194 19.9342 87.5201 19.1466H91.1801C91.225 19.9136 91.5575 20.6355 92.1112 21.1681C92.8073 21.6738 93.6616 21.913 94.5191 21.8423C96.531 21.8423 97.537 21.1253 97.537 19.6913C97.5516 19.3908 97.4829 19.0921 97.3385 18.8281C97.1942 18.5642 96.9798 18.3452 96.7189 18.1954C95.848 17.7623 94.9078 17.4854 93.9412 17.3773C92.2558 17.2229 90.6347 16.6548 89.2217 15.7233C88.7489 15.2893 88.3817 14.753 88.148 14.1553C87.9142 13.5576 87.8203 12.9144 87.8732 12.2749C87.8454 11.5495 88.0015 10.8288 88.3271 10.1799C88.6527 9.53101 89.1371 8.97505 89.7354 8.56375C91.0323 7.65853 92.5848 7.19187 94.1659 7.23197C98.1898 7.23197 100.384 8.92285 100.748 12.3046H97.1517C97.0425 11.6439 96.7061 11.0421 96.2004 10.603C95.6007 10.1985 94.8828 10.0063 94.1612 10.0572C93.4658 10.0164 92.7767 10.2085 92.2027 10.603C91.9772 10.769 91.7952 10.9871 91.6722 11.2387C91.5492 11.4903 91.4889 11.7679 91.4964 12.0478C91.4837 12.3187 91.5459 12.5879 91.6762 12.8258C91.8064 13.0636 91.9997 13.261 92.2348 13.3962C93.0946 13.8108 94.0165 14.0819 94.9638 14.1988C96.6535 14.3705 98.2857 14.9073 99.7475 15.772C100.277 16.1928 100.693 16.7399 100.957 17.3632C101.221 17.9864 101.324 18.6659 101.256 19.3393C101.299 20.0915 101.163 20.8432 100.86 21.533C100.557 22.2228 100.095 22.8312 99.5121 23.3085C98.0633 24.3236 96.3117 24.8143 94.5464 24.6997ZM110.379 24.6676C109.696 24.7151 109.011 24.626 108.363 24.4055C107.715 24.1849 107.118 23.8375 106.606 23.3834C106.151 22.889 105.801 22.3073 105.578 21.6737C105.355 21.04 105.262 20.3676 105.306 19.6972V10.515H103.059V7.59345H105.306V3.90727H109.191V7.59345H112.877V10.515H109.191V19.344C109.191 20.7781 109.833 21.4951 111.118 21.4951C111.764 21.5133 112.408 21.4042 113.012 21.174V24.2502C112.166 24.5444 111.275 24.6857 110.379 24.6676ZM116.608 24.3786V7.58751H120.492V24.3786H116.608ZM120.139 4.18433C119.922 4.39414 119.666 4.5589 119.385 4.66911C119.104 4.77931 118.804 4.83279 118.502 4.82644C118.2 4.83279 117.9 4.77931 117.619 4.66911C117.338 4.5589 117.081 4.39414 116.864 4.18433C116.647 3.98462 116.475 3.74116 116.359 3.47C116.243 3.19884 116.185 2.90613 116.19 2.61117C116.183 2.31116 116.239 2.01299 116.355 1.7363C116.472 1.45962 116.645 1.21068 116.864 1.00589C117.081 0.796085 117.338 0.631325 117.619 0.521119C117.9 0.410912 118.2 0.35744 118.502 0.363787C118.804 0.35744 119.104 0.410912 119.385 0.521119C119.666 0.631325 119.922 0.796085 120.139 1.00589C120.359 1.21068 120.532 1.45962 120.648 1.7363C120.764 2.01299 120.821 2.31116 120.813 2.61117C120.819 2.90613 120.761 3.19884 120.645 3.47C120.529 3.74116 120.356 3.98462 120.139 4.18433ZM125.212 24.3786V7.58751H129.097V10.2523C129.554 9.34476 130.269 8.59207 131.151 8.08811C132.175 7.49971 133.342 7.2055 134.522 7.23791C135.298 7.19733 136.073 7.3207 136.798 7.59996C137.523 7.87922 138.18 8.3081 138.728 8.85864C139.863 10.2514 140.417 12.0285 140.274 13.8195V24.3786H136.385V14.1691C136.466 13.1714 136.181 12.1781 135.582 11.3759C135.248 11.053 134.849 10.8056 134.412 10.6505C133.974 10.4954 133.508 10.4362 133.046 10.477C131.998 10.4366 130.977 10.8114 130.205 11.5198C129.821 11.9094 129.524 12.3755 129.333 12.8878C129.142 13.4001 129.062 13.9469 129.097 14.4926V24.3786H125.212Z" fill="#9A9D9E"/>
</g>
<defs>
<clipPath id="clip0_721_37">
<rect width="141" height="31" fill="white"/>
</clipPath>
</defs>
</svg>
