<svg width="105" height="33" viewBox="0 0 105 33" fill="none" xmlns="http://www.w3.org/2000/svg">
<g clip-path="url(#clip0_721_18)">
<path d="M1.2468 10.7441H11.6337L8.19779 26.7283H11.9236L10.6768 32.4761H0.28989L3.72585 16.492H0L1.2468 10.7441ZM5.67875 3.73772C5.67701 3.2375 5.76815 2.74192 5.94682 2.28C6.11562 1.83675 6.36458 1.43387 6.67927 1.09469C6.99629 0.755868 7.37077 0.485421 7.78249 0.297972C8.21781 0.0997903 8.68647 8.21343e-05 9.15924 0.00506263C9.61597 0.00205074 10.0682 0.101828 10.4869 0.297972C10.8937 0.487661 11.2637 0.757942 11.5774 1.09469C11.8928 1.4353 12.1445 1.83765 12.3189 2.28C12.5021 2.74063 12.5949 3.23685 12.5916 3.73772C12.5949 4.23859 12.5021 4.73481 12.3189 5.19544C12.1445 5.63779 11.8928 6.04014 11.5774 6.38075C11.2637 6.7175 10.8937 6.98778 10.4869 7.17746C10.0682 7.37361 9.61597 7.47339 9.15924 7.47037C8.68647 7.47538 8.21781 7.37567 7.78249 7.17746C7.37077 6.99002 6.99629 6.71957 6.67927 6.38075C6.36468 6.04186 6.11573 5.63932 5.94682 5.19641C5.76803 4.73419 5.67689 4.23827 5.67875 3.73772ZM14.3863 23.3295C14.362 21.4594 14.7044 19.6048 15.3914 17.8863C16.0244 16.3149 16.944 14.8956 18.0958 13.7123C19.2338 12.555 20.5706 11.6467 22.0316 11.038C23.5336 10.4063 25.1333 10.086 26.7462 10.0939C27.9754 10.084 29.1938 10.3407 30.3284 10.8486C31.4098 11.3297 32.3943 12.0313 33.2273 12.9146C34.0527 13.7971 34.7093 14.8446 35.1602 15.998C35.633 17.2027 35.872 18.4984 35.8627 19.8058C35.8814 21.6183 35.5593 23.4163 34.9158 25.0919C34.3139 26.6529 33.4317 28.0712 32.3195 29.2658C31.2011 30.4532 29.8723 31.3875 28.4119 32.0133C26.8636 32.6799 25.209 33.0149 23.541 32.9995C22.2914 33.0133 21.0523 32.7528 19.8997 32.234C18.8191 31.7465 17.8351 31.0417 17.0008 30.1573C16.1788 29.2789 15.526 28.2352 15.0797 27.0856C14.615 25.8971 14.3791 24.6187 14.3863 23.3295ZM20.7475 22.5533C20.7413 23.1275 20.827 23.6985 21.0011 24.2415C21.1569 24.7274 21.3988 25.1764 21.7135 25.5635C22.0152 25.9311 22.3872 26.2245 22.804 26.4236C23.2376 26.629 23.707 26.7328 24.1808 26.7283C24.8622 26.7273 25.5353 26.5664 26.1528 26.2567C26.7945 25.942 27.376 25.5017 27.8676 24.9581C28.3766 24.3925 28.7836 23.7304 29.068 23.0054C29.3706 22.2395 29.5234 21.415 29.5169 20.583C29.5294 19.9512 29.4333 19.3223 29.2334 18.7279C29.0667 18.2414 28.8112 17.7956 28.4819 17.4166C28.1764 17.0716 27.8042 16.803 27.3914 16.6297C26.9681 16.4534 26.5177 16.3643 26.0637 16.367C25.3453 16.3601 24.6347 16.5269 23.9845 16.8552C23.3483 17.1777 22.7773 17.6316 22.3042 18.1909C21.82 18.7662 21.4364 19.4307 21.1719 20.1524C20.8889 20.9164 20.7461 21.732 20.7512 22.5543L20.7475 22.5533ZM39.5095 10.7393H49.7783L49.4657 12.5221V12.5016C50.0355 12.0371 50.6439 11.6298 51.2832 11.285C51.9022 10.9554 52.5511 10.6949 53.2197 10.5079C53.8888 10.3183 54.5779 10.2232 55.2699 10.2247C56.288 10.2006 57.2994 10.4079 58.2378 10.833C59.0475 11.2074 59.7486 11.8086 60.268 12.5739C60.8004 13.3995 61.1325 14.355 61.2339 15.3536C61.3615 16.6002 61.2787 17.8614 60.9895 19.0765L59.3301 26.7283H63.016L61.7901 32.4761H51.4231L53.9413 20.7919C54.0545 20.3162 54.0907 19.8231 54.0485 19.3342C54.0153 18.9381 53.909 18.5531 53.7359 18.2016C53.5831 17.8978 53.353 17.6469 53.0725 17.4782C52.7762 17.3059 52.4434 17.2191 52.1065 17.2262C51.2386 17.2904 50.3964 17.5705 49.6465 18.0444C49.0906 18.3573 48.5615 18.7222 48.0653 19.135L45.1946 32.4761H38.3418L41.7777 16.492H38.2636L39.5095 10.7393ZM67.2526 10.7393H77.6468L74.2072 26.7283H77.933L76.6871 32.4761H66.3002L69.7407 16.492H66.0149L67.2526 10.7393ZM71.6845 3.73284C71.6813 3.23295 71.7709 2.73739 71.948 2.27512C72.1168 1.83187 72.3658 1.42899 72.6805 1.08981C72.9975 0.750985 73.372 0.480539 73.7837 0.293089C74.219 0.0948805 74.6877 -0.00482872 75.1605 0.000179744C75.6172 -0.00283214 76.0695 0.096945 76.4881 0.293089C76.895 0.482778 77.2649 0.753059 77.5786 1.08981C77.894 1.43041 78.1457 1.83277 78.3202 2.27512C78.5033 2.73575 78.5961 3.23197 78.5928 3.73284C78.5961 4.23371 78.5033 4.72993 78.3202 5.19056C78.1457 5.63291 77.894 6.03526 77.5786 6.37587C77.2649 6.71261 76.895 6.98289 76.4881 7.17258C76.0695 7.36873 75.6172 7.46851 75.1605 7.46549C74.6877 7.4705 74.219 7.37079 73.7837 7.17258C73.372 6.98513 72.9975 6.71469 72.6805 6.37587C72.3658 6.03669 72.1168 5.63381 71.948 5.19056C71.7731 4.72947 71.685 4.23564 71.6891 3.73772L71.6845 3.73284ZM93.7506 30.8163C93.2047 31.4102 92.5545 31.8817 91.8377 32.2037C90.893 32.6301 89.8751 32.8374 88.8507 32.812C87.7904 32.8109 86.7389 32.6048 85.7464 32.2037C84.7391 31.8037 83.8188 31.1864 83.042 30.3896C82.225 29.5398 81.5743 28.523 81.1282 27.399C80.6195 26.0985 80.37 24.698 80.3957 23.2875C80.3867 22.0137 80.5512 20.7454 80.8837 19.5227C81.1936 18.3916 81.6468 17.3117 82.2305 16.3133C82.795 15.3521 83.4816 14.4802 84.2706 13.723C85.0515 12.9728 85.9174 12.3315 86.8478 11.8142C87.7832 11.2949 88.7729 10.8969 89.7958 10.6289C90.8277 10.3566 91.8865 10.2192 92.9491 10.2198C93.4626 10.2125 93.9757 10.2546 94.4822 10.3458C94.9063 10.4297 95.3909 10.5557 95.9362 10.7236C96.6256 10.971 97.272 11.3395 97.8491 11.8142L98.0835 10.7402H104.717L101.264 26.7244H105L103.747 32.4761H93.399L93.7506 30.8163ZM94.4731 24.6701L95.3319 23.516L96.3079 18.9847C96.1422 18.6483 95.9389 18.3349 95.7026 18.0513C95.4368 17.7347 95.1231 17.4687 94.7748 17.2643C94.3941 17.0366 93.9871 16.8639 93.5644 16.7508C93.1338 16.6325 92.6911 16.5725 92.2467 16.5721C91.5543 16.5697 90.8692 16.7234 90.2356 17.0232C89.6131 17.3126 89.0468 17.7253 88.5663 18.2397C88.0833 18.7624 87.6959 19.3777 87.424 20.0538C87.1357 20.7617 86.9893 21.5268 86.9941 22.2995C86.9829 22.9003 87.0823 23.4976 87.2868 24.0569C87.4652 24.534 87.7384 24.9635 88.0874 25.3155C88.4255 25.6507 88.8242 25.9076 89.2587 26.0702C89.7169 26.2408 90.1988 26.326 90.6836 26.3221C91.128 26.32 91.5704 26.26 92.0013 26.1434C92.4544 26.0228 92.8909 25.8393 93.2999 25.5976C93.7276 25.347 94.1222 25.036 94.4731 24.673V24.6701Z" fill="#9A9D9E"/>
</g>
<defs>
<clipPath id="clip0_721_18">
<rect width="105" height="33" fill="white"/>
</clipPath>
</defs>
</svg>
