<svg width="137" height="20" viewBox="0 0 137 20" fill="none" xmlns="http://www.w3.org/2000/svg">
<g clip-path="url(#clip0_721_20)">
<path d="M0 19.6649V0.33304H4.30533L10.6217 12.5949L16.8531 0.33304H21.1584V19.6649H17.5329V6.32591L12.0096 16.9032H9.14883L3.62082 6.32591V19.6649H0ZM27.843 19.6649V0.33304H31.4733V19.6649H27.843ZM38.1532 19.6649V0.33304H42.4585L48.7749 12.5949L55.0063 0.33304H59.3116V19.6649H55.6861V6.32591L50.1628 16.9032H47.302L41.7787 6.32591V19.6649H38.1532ZM75.2867 19.9963C73.4705 20.0377 71.6764 19.6004 70.0938 18.7305C68.6211 17.8933 67.4152 16.6744 66.6099 15.2094C65.7417 13.6053 65.3063 11.8123 65.3448 9.99896C65.3057 8.18759 65.7394 6.39625 66.6052 4.79317C67.4104 3.32807 68.6164 2.10924 70.0891 1.27201C71.6717 0.4021 73.4657 -0.0352037 75.282 0.00623929H84.2184C85.9589 -0.00640699 87.672 0.430302 89.1834 1.27201C90.6604 2.104 91.8676 3.32416 92.6673 4.79317C93.5257 6.39861 93.9559 8.18884 93.9184 9.99896C93.9574 11.8087 93.5288 13.5989 92.6721 15.2047C91.8714 16.6742 90.6629 17.8944 89.1846 18.7259C87.6677 19.5473 85.9629 19.9827 84.2278 19.9917C84.4072 19.9917 75.4944 19.9963 75.2867 19.9963ZM75.2867 16.8203H84.2561C85.0594 16.8329 85.8561 16.6769 86.5922 16.3631C87.3283 16.0492 87.9866 15.5847 88.5225 15.0011C89.7126 13.6013 90.3147 11.8141 90.2078 9.99896C90.3138 8.18499 89.7117 6.39914 88.5225 5.0003C87.9678 4.42278 87.2968 3.96304 86.5515 3.64981C85.8063 3.33659 85.0028 3.17661 84.1912 3.17988C84.3789 3.17988 75.4767 3.17988 75.2879 3.17988C74.442 3.14442 73.5984 3.28912 72.8157 3.60391C72.0331 3.91869 71.3302 4.396 70.7559 5.0026C69.5583 6.39676 68.9502 8.18329 69.0553 9.99896C68.9493 11.8153 69.557 13.6027 70.7548 14.9976C71.329 15.6042 72.0319 16.0815 72.8146 16.3963C73.5972 16.7111 74.4408 16.8558 75.2867 16.8203ZM106.721 19.9963C105.398 20.0218 104.085 19.7723 102.869 19.2644C101.807 18.8184 100.895 18.0913 100.235 17.1656C99.5694 16.1783 99.224 15.0188 99.2434 13.8377H103.067C103.086 14.6958 103.446 15.5132 104.073 16.1161C104.423 16.4343 104.836 16.6799 105.286 16.8381C105.736 16.9963 106.215 17.0639 106.693 17.0367C107.515 17.0798 108.327 16.8404 108.987 16.3601C109.263 16.1446 109.484 15.8693 109.631 15.556C109.779 15.2428 109.85 14.9003 109.838 14.5558C109.858 14.2127 109.801 13.8695 109.672 13.55C109.542 13.2305 109.343 12.9423 109.087 12.7054C108.504 12.2179 107.824 11.8514 107.09 11.6284L104.428 10.7446C103.118 10.3573 101.92 9.67627 100.929 8.7562C100.518 8.32222 100.201 7.81309 99.9942 7.2584C99.7876 6.70371 99.696 6.1145 99.7249 5.52502C99.6772 4.48311 99.9698 3.45332 100.56 2.58382C101.154 1.75006 101.97 1.09096 102.921 0.678251C104.008 0.20974 105.188 -0.021193 106.376 0.00163681C107.58 -0.0221511 108.775 0.213602 109.875 0.692058C110.835 1.11134 111.658 1.78016 112.254 2.62524C112.846 3.50349 113.165 4.52945 113.174 5.58025H109.299C109.279 4.89822 108.99 4.24994 108.491 3.77134C108.206 3.50082 107.866 3.29114 107.493 3.15564C107.12 3.02014 106.722 2.96178 106.325 2.98426C105.611 2.94386 104.906 3.14554 104.328 3.55501C104.059 3.75687 103.845 4.01962 103.704 4.32044C103.564 4.62125 103.501 4.95102 103.52 5.28107C103.506 5.56511 103.554 5.84884 103.662 6.11321C103.769 6.37758 103.934 6.61646 104.144 6.81381C104.64 7.23755 105.218 7.56136 105.843 7.76659C106.561 8.02435 107.382 8.30052 108.307 8.5951C109.237 8.90408 110.138 9.29221 110.998 9.75501C111.786 10.1756 112.457 10.7776 112.952 11.5087C113.475 12.352 113.732 13.3271 113.689 14.3118C113.695 15.3039 113.42 16.2785 112.896 17.1287C112.33 18.0233 111.515 18.7431 110.546 19.2046C109.355 19.7639 108.043 20.0355 106.721 19.9963ZM118.419 19.6649L125.67 0.33304H129.749L137 19.6649H133.148L131.562 15.1909H123.829L122.215 19.6649H118.419ZM124.82 12.4292H130.57L127.681 4.39272L124.82 12.4292Z" fill="#9A9D9E"/>
</g>
<defs>
<clipPath id="clip0_721_20">
<rect width="137" height="20" fill="white"/>
</clipPath>
</defs>
</svg>
