<svg width="114" height="25" viewBox="0 0 114 25" fill="none" xmlns="http://www.w3.org/2000/svg">
<g clip-path="url(#clip0_721_28)">
<path d="M70.7334 24.311C68.6386 24.3741 66.5933 23.6671 64.9839 22.3248C64.1991 21.6194 63.5831 20.7469 63.1812 19.7712C62.7793 18.7955 62.6019 17.7416 62.6622 16.6881V1.67181C62.6493 1.57408 62.659 1.47473 62.6905 1.38132C62.7221 1.28791 62.7745 1.2027 62.844 1.13278C62.9135 1.06287 62.9982 1.00965 63.0914 0.977574C63.1846 0.945502 63.284 0.934808 63.3818 0.947162H67.1725C67.2703 0.934808 67.3697 0.945502 67.4629 0.977574C67.5561 1.00965 67.6406 1.06287 67.7101 1.13278C67.7796 1.2027 67.8322 1.28791 67.8637 1.38132C67.8953 1.47473 67.9049 1.57408 67.8919 1.67181V15.2021C67.8311 16.4277 68.225 17.6331 68.998 18.5862C69.3876 19.0117 69.8667 19.3452 70.4007 19.5636C70.9347 19.7819 71.5103 19.8794 72.0864 19.8488C72.6858 19.8748 73.2841 19.7757 73.8433 19.5583C74.4025 19.3409 74.9104 19.0102 75.3349 18.5862C75.7508 18.1302 76.0726 17.5959 76.2817 17.0152C76.4909 16.4346 76.5833 15.8185 76.5537 15.2021V1.67181C76.5408 1.57408 76.5504 1.47473 76.5819 1.38132C76.6134 1.28791 76.6661 1.2027 76.7356 1.13278C76.8051 1.06287 76.8897 1.00965 76.9829 0.977574C77.0761 0.945502 77.1755 0.934808 77.2733 0.947162H81.0178C81.1158 0.934266 81.2155 0.944695 81.3092 0.976525C81.4028 1.00836 81.4878 1.0607 81.5577 1.13068C81.6276 1.20067 81.6805 1.28659 81.7121 1.38027C81.7438 1.47395 81.7535 1.57378 81.7405 1.67181V23.2739C81.7528 23.3716 81.7426 23.4712 81.7106 23.5643C81.6786 23.6575 81.6257 23.7424 81.5559 23.8118C81.4861 23.8813 81.4013 23.9333 81.308 23.9649C81.2147 23.9965 81.1154 24.006 81.0178 23.9933H77.2733C77.1756 24.0068 77.0761 23.9984 76.9827 23.967C76.8892 23.9357 76.8042 23.8826 76.7345 23.8129C76.6648 23.7432 76.6123 23.6589 76.5809 23.5654C76.5495 23.4719 76.5402 23.3715 76.5537 23.2739V22.1014C76.5537 21.9833 76.5151 21.905 76.441 21.8749C76.4264 21.8687 76.4107 21.8657 76.3949 21.8655C76.3369 21.8655 76.2875 21.9135 76.2381 22.0112C75.566 22.8003 74.7173 23.4197 73.7608 23.8192C72.8044 24.2187 71.7671 24.3877 70.7334 24.311ZM95.9445 24.268C94.2458 24.3003 92.5558 24.0163 90.9607 23.4312C89.6723 22.9704 88.5287 22.1776 87.6457 21.1324C86.888 20.2107 86.4735 19.0537 86.4729 17.8605V17.634C86.4606 17.5363 86.471 17.4377 86.503 17.3445C86.535 17.2514 86.5879 17.1665 86.6577 17.097C86.7274 17.0276 86.8123 16.9755 86.9055 16.9439C86.9988 16.9123 87.0981 16.9018 87.1958 16.9146H90.8039C91.2904 16.9146 91.5266 17.0219 91.5266 17.2313V17.5438C91.5485 17.9494 91.674 18.3434 91.8909 18.6869C92.1078 19.0303 92.4091 19.3118 92.7659 19.5059C93.7032 20.0928 94.7953 20.3845 95.9004 20.3428C96.9301 20.3843 97.9494 20.1227 98.8321 19.5908C99.1665 19.404 99.4464 19.1326 99.6438 18.8043C99.8412 18.476 99.9492 18.1019 99.9575 17.7189C99.9673 17.3987 99.8858 17.0832 99.7224 16.8076C99.5591 16.5321 99.3206 16.3077 99.035 16.1627C98.0775 15.69 97.0724 15.3213 96.0368 15.0615L94.3186 14.5183C92.989 14.1433 91.6922 13.6598 90.4409 13.0743C89.4105 12.5798 88.5016 11.8654 87.7788 10.98C87.0306 10.0058 86.6475 8.7992 86.6963 7.57176C86.6678 6.59722 86.8766 5.63085 87.3048 4.75497C87.733 3.87909 88.3679 3.12035 89.1545 2.54432C91.0606 1.21869 93.3516 0.560435 95.6706 0.672404C97.3242 0.638168 98.9676 0.937639 100.503 1.55226C101.777 2.05836 102.89 2.89952 103.725 3.98733C104.485 5.01104 104.889 6.25676 104.874 7.53191C104.873 7.60741 104.854 7.68121 104.819 7.74794C104.784 7.81467 104.733 7.87176 104.671 7.91468C104.52 8.0238 104.337 8.07954 104.151 8.07199H100.68C100.2 8.07199 99.9575 7.98181 99.9575 7.80247V7.53191C99.9491 7.13405 99.8392 6.74481 99.6381 6.40142C99.437 6.05802 99.1514 5.77172 98.8085 5.5698C97.8664 4.99832 96.7742 4.72327 95.6739 4.78119C94.6779 4.73995 93.6889 4.96541 92.8088 5.43347C92.4744 5.60642 92.1945 5.86844 91.9998 6.19063C91.8052 6.51282 91.7035 6.88179 91.7059 7.2582C91.7018 7.60352 91.7974 7.94322 91.9812 8.23558C92.165 8.52795 92.4292 8.76075 92.7422 8.90675C93.8554 9.43687 95.0198 9.85242 96.2173 10.1463L97.2535 10.4158C98.6355 10.8125 99.9915 11.2943 101.314 11.8588C102.378 12.3292 103.318 13.0403 104.062 13.9352C104.841 14.9212 105.242 16.1528 105.191 17.4085C105.224 18.3907 105.009 19.366 104.568 20.2442C104.127 21.1224 103.474 21.8761 102.667 22.437C100.676 23.7408 98.322 24.3818 95.9445 24.268ZM9.30415 24.268C9.19677 24.268 9.07004 24.268 8.8907 24.268V20.3407C9.02279 20.3407 9.14306 20.349 9.26011 20.349C10.2898 20.3906 11.3091 20.129 12.1917 19.5971C12.5259 19.4099 12.8055 19.1389 13.0029 18.8106C13.2003 18.4824 13.3086 18.1081 13.3172 17.7252C13.3271 17.405 13.2456 17.0895 13.0822 16.8139C12.9188 16.5383 12.6804 16.315 12.3948 16.17C11.4345 15.697 10.4265 15.3272 9.38792 15.0678L7.67619 14.5246C6.34536 14.1501 5.04737 13.6677 3.79523 13.0816C2.76598 12.5872 1.8585 11.8717 1.13745 10.9863C0.389195 10.0121 0.00610353 8.80654 0.0549337 7.5791C0.0263976 6.60457 0.235356 5.63714 0.663569 4.76126C1.09178 3.88538 1.72648 3.12664 2.51307 2.55061C4.41892 1.22439 6.71012 0.566077 9.02926 0.678696C10.6809 0.645768 12.3224 0.945206 13.8563 1.55855C15.1297 2.06577 16.2427 2.90778 17.0779 3.99467C17.8383 5.01839 18.2419 6.26305 18.2268 7.5382C18.2263 7.6137 18.2076 7.68751 18.1723 7.75423C18.137 7.82096 18.086 7.87806 18.0239 7.92098C17.8727 8.02919 17.69 8.08484 17.5042 8.07828H14.0335C13.5535 8.07828 13.3107 7.9881 13.3107 7.80877V7.5382C13.3023 7.14034 13.1925 6.75111 12.9914 6.40771C12.7902 6.06432 12.5046 5.77801 12.1617 5.5761C11.2197 5.00462 10.1275 4.72956 9.02717 4.78748C8.03111 4.74541 7.04182 4.97091 6.162 5.43977C5.82706 5.61227 5.54646 5.87365 5.35123 6.19587C5.156 6.5181 5.05387 6.8888 5.05602 7.26554C5.05209 7.61124 5.14808 7.9505 5.33249 8.24293C5.5169 8.53535 5.78177 8.76762 6.09541 8.91304C7.20706 9.44334 8.37007 9.85889 9.56619 10.1526L10.6057 10.4221C11.9867 10.8187 13.3416 11.3004 14.6627 11.8651C15.7282 12.3346 16.67 13.0459 17.414 13.9415C18.1933 14.9274 18.594 16.1591 18.5437 17.4148C18.5758 18.3974 18.3611 19.3732 17.9193 20.2515C17.4775 21.1298 16.8228 21.8833 16.0147 22.4433C14.0263 23.7439 11.6774 24.3827 9.30415 24.268ZM56.3028 23.9933H52.512C52.4144 24.0068 52.315 23.9984 52.2216 23.967C52.1281 23.9357 52.0431 23.8826 51.9734 23.8129C51.9037 23.7432 51.851 23.6589 51.8196 23.5654C51.7883 23.4719 51.7791 23.3715 51.7926 23.2739V1.67181C51.7797 1.57408 51.7893 1.47473 51.8208 1.38132C51.8523 1.28791 51.905 1.2027 51.9745 1.13278C52.044 1.06287 52.1285 1.00965 52.2217 0.977574C52.3149 0.945502 52.4142 0.934808 52.512 0.947162H56.3028C56.4006 0.934808 56.5 0.945502 56.5932 0.977574C56.6864 1.00965 56.771 1.06287 56.8405 1.13278C56.91 1.2027 56.9625 1.28791 56.994 1.38132C57.0256 1.47473 57.0353 1.57408 57.0223 1.67181V23.2739C57.0368 23.3719 57.0283 23.4723 56.9973 23.5664C56.9664 23.6606 56.9139 23.7467 56.8441 23.8171C56.7742 23.8874 56.6889 23.9406 56.595 23.9723C56.5011 24.0039 56.401 24.0133 56.3028 23.9996V23.9933ZM38.9836 23.9933H35.1929C35.0952 24.0068 34.9957 23.9984 34.9022 23.967C34.8088 23.9357 34.7238 23.8826 34.6541 23.8129C34.5844 23.7432 34.5318 23.6589 34.5005 23.5654C34.4691 23.4719 34.4598 23.3715 34.4733 23.2739V1.67181C34.4604 1.57408 34.4701 1.47473 34.5016 1.38132C34.5332 1.28791 34.5856 1.2027 34.6551 1.13278C34.7246 1.06287 34.8093 1.00965 34.9025 0.977574C34.9957 0.945502 35.0951 0.934808 35.1929 0.947162H38.9836C39.0814 0.934808 39.1808 0.945502 39.274 0.977574C39.3672 1.00965 39.4517 1.06287 39.5212 1.13278C39.5907 1.2027 39.6433 1.28791 39.6749 1.38132C39.7064 1.47473 39.716 1.57408 39.703 1.67181V3.43047C39.703 3.55074 39.732 3.62377 39.7932 3.65384C39.8044 3.65999 39.817 3.66308 39.8298 3.66328C39.8803 3.66328 39.9296 3.61516 39.9769 3.52066C40.3966 2.84131 40.948 2.25323 41.5987 1.79031C42.2493 1.3274 42.9861 0.999259 43.7655 0.825513H46.565C46.9204 0.906201 47.2666 1.02231 47.5981 1.17368C47.7655 1.24645 47.8999 1.37965 47.9751 1.54597C48.0504 1.71228 48.0611 1.90075 48.0052 2.07451L47.2823 5.8173C47.2523 6.05999 47.1686 6.21127 47.0322 6.27033C46.9527 6.30318 46.867 6.31855 46.7809 6.31543C46.6615 6.31364 46.5426 6.29852 46.4265 6.27033C45.9568 6.13599 45.4694 6.07451 44.9811 6.08786C44.694 6.08429 44.407 6.09968 44.122 6.134C42.9392 6.16258 41.811 6.63781 40.9638 7.46375C40.5439 7.88563 40.2151 8.38928 39.9979 8.94345C39.7806 9.49762 39.6796 10.0905 39.7009 10.6853V23.2707C39.7159 23.3688 39.7078 23.4689 39.6772 23.5633C39.6466 23.6577 39.5944 23.7443 39.5248 23.815C39.4551 23.8857 39.3699 23.9392 39.276 23.9712C39.182 24.0032 39.0819 24.013 38.9836 23.9996V23.9933ZM27.8434 23.9933H24.0526C23.9549 24.0068 23.8554 23.9984 23.762 23.967C23.6685 23.9357 23.5835 23.8826 23.5138 23.8129C23.4441 23.7432 23.3916 23.6589 23.3602 23.5654C23.3288 23.4719 23.3195 23.3715 23.3331 23.2739V1.67181C23.3201 1.57408 23.3299 1.47473 23.3614 1.38132C23.3929 1.28791 23.4454 1.2027 23.5149 1.13278C23.5844 1.06287 23.669 1.00965 23.7622 0.977574C23.8555 0.945502 23.9548 0.934808 24.0526 0.947162H27.8434C27.9412 0.934808 28.0405 0.945502 28.1337 0.977574C28.2269 1.00965 28.3116 1.06287 28.3811 1.13278C28.4506 1.2027 28.5031 1.28791 28.5346 1.38132C28.5661 1.47473 28.5757 1.57408 28.5628 1.67181V23.2739C28.5772 23.3719 28.5687 23.4723 28.5377 23.5664C28.5068 23.6606 28.4543 23.7467 28.3845 23.8171C28.3146 23.8874 28.2294 23.9406 28.1354 23.9723C28.0415 24.0039 27.9415 24.0133 27.8434 23.9996V23.9933Z" fill="#9A9D9E"/>
<path d="M110.704 24.0454C110.303 24.0597 109.903 23.9933 109.528 23.8499C109.154 23.7066 108.812 23.4893 108.523 23.211C108.244 22.9415 108.023 22.617 107.877 22.258C107.73 21.899 107.659 21.5133 107.669 21.1255C107.668 20.7402 107.75 20.3592 107.911 20.0088C108.071 19.6584 108.305 19.347 108.598 19.0959C109.162 18.5491 109.917 18.243 110.703 18.2422C111.506 18.2399 112.279 18.5454 112.864 19.0959C113.161 19.3441 113.4 19.6546 113.564 20.0053C113.728 20.356 113.813 20.7384 113.812 21.1255C113.818 21.5134 113.741 21.898 113.587 22.2542C113.434 22.6105 113.207 22.9303 112.921 23.1927C112.626 23.4744 112.278 23.6949 111.898 23.8412C111.517 23.9876 111.111 24.057 110.704 24.0454Z" fill="#9A9D9E"/>
</g>
<defs>
<clipPath id="clip0_721_28">
<rect width="114" height="25" fill="white"/>
</clipPath>
</defs>
</svg>
