<svg width="74" height="30" viewBox="0 0 74 30" fill="none" xmlns="http://www.w3.org/2000/svg">
<g clip-path="url(#clip0_721_41)">
<path d="M0 29.2933C0.096099 28.9491 0.171721 28.5998 0.226487 28.247C0.295332 27.8311 0.357136 27.3144 0.411899 26.697C0.466663 26.0796 0.507737 25.3451 0.535119 24.4934C0.5625 23.6417 0.576191 22.6458 0.576191 21.5056V8.40616C0.576191 7.26599 0.5625 6.27005 0.535119 5.41836C0.507737 4.56666 0.466663 3.82867 0.411899 3.2044C0.357136 2.58089 0.295332 2.06117 0.226487 1.64525C0.171721 1.29251 0.096099 0.943163 0 0.598943V0.51881H4.92871V0.598943C4.83262 0.943669 4.75428 1.29287 4.69401 1.64525C4.61578 2.06117 4.55397 2.58089 4.5086 3.2044C4.46322 3.82791 4.42215 4.5659 4.38538 5.41836C4.35096 6.27005 4.33375 7.26599 4.33375 8.40616V21.5056C4.33375 22.6458 4.35096 23.6417 4.38538 24.4934C4.4198 25.3451 4.46088 26.0796 4.5086 26.697C4.5571 27.3144 4.61891 27.8311 4.69401 28.247C4.75428 28.5994 4.83262 28.9486 4.92871 29.2933V29.3735H0V29.2933ZM19.5975 21.509C19.5975 22.6492 19.6147 23.6451 19.6491 24.4968C19.6835 25.3485 19.7246 26.0831 19.7723 26.7005C19.8208 27.3179 19.8827 27.8345 19.9578 28.2505C20.018 28.6028 20.0964 28.9521 20.1925 29.2968V29.3735H15.2415V29.2933C15.3375 28.9486 15.4159 28.5994 15.4761 28.247C15.5544 27.8311 15.6162 27.3144 15.6616 26.697C15.7069 26.0796 15.748 25.3485 15.7848 24.5037C15.8192 23.6589 15.8364 22.6595 15.8364 21.5056V8.40616C15.8364 7.26599 15.8192 6.27005 15.7848 5.41836C15.7504 4.56666 15.7093 3.83211 15.6616 3.21471C15.6131 2.5973 15.5513 2.07758 15.4761 1.65555C15.4165 1.29966 15.3382 0.946996 15.2415 0.598943V0.51881L16.1075 0.598943C16.3688 0.625654 16.661 0.642444 16.9841 0.649313C17.3072 0.656181 17.6409 0.659614 17.9851 0.659614C18.7139 0.643513 19.4408 0.579645 20.1608 0.46844C21.3202 0.326744 22.4882 0.262869 23.6566 0.277267C24.8975 0.265773 26.1326 0.44226 27.318 0.80042C28.3835 1.12024 29.3748 1.63974 30.2365 2.32981C31.061 2.99927 31.7204 3.84127 32.1657 4.79332C32.6415 5.83431 32.8778 6.96433 32.8581 8.10395C32.8664 9.01291 32.7379 9.91814 32.4767 10.7907C32.2362 11.5867 31.8747 12.343 31.4041 13.0344C30.9438 13.7049 30.3842 14.3052 29.7436 14.8156C29.0837 15.3399 28.3552 15.776 27.5773 16.1126L34.8178 26.0331C35.1753 26.5291 35.509 26.9584 35.8188 27.3209C36.096 27.649 36.3922 27.9613 36.706 28.2562C36.9574 28.4941 37.2299 28.7098 37.5204 28.9007C37.7712 29.0633 38.0416 29.1952 38.3254 29.2933V29.3735H32.364C32.2838 29.0166 32.1481 28.6738 31.9615 28.3569C31.726 27.9202 31.4606 27.4995 31.1671 27.0977L23.8643 17.0571C23.5514 17.0838 23.235 17.1074 22.915 17.128C22.595 17.1487 22.2719 17.1586 21.9457 17.1578C21.5608 17.1578 21.1723 17.1445 20.7804 17.1177C20.3827 17.0903 19.9868 17.0433 19.594 16.9769L19.5975 21.509ZM19.5975 15.4121C19.9716 15.4928 20.3506 15.5498 20.7323 15.5826C21.1172 15.6162 21.4884 15.633 21.8459 15.633C22.808 15.6426 23.7645 15.4876 24.6717 15.1751C25.4978 14.8909 26.2433 14.4202 26.8474 13.8014C27.4739 13.1383 27.9487 12.3528 28.2403 11.497C28.5899 10.4553 28.7573 9.36358 28.7356 8.26765C28.7459 7.34393 28.6275 6.42312 28.3835 5.53054C28.1822 4.77502 27.8283 4.06631 27.3426 3.44595C26.879 2.87364 26.2814 2.41825 25.6 2.11803C24.8265 1.78847 23.9888 1.62713 23.145 1.64525C22.3858 1.63249 21.6268 1.67958 20.8754 1.78605C20.4405 1.84871 20.0124 1.94987 19.5963 2.08827L19.5975 15.4121ZM44.6107 29.2933C44.7068 28.9491 44.7824 28.5998 44.8372 28.247C44.906 27.8311 44.9678 27.3144 45.0226 26.697C45.0774 26.0796 45.1184 25.3451 45.1458 24.4934C45.1732 23.6417 45.1869 22.6458 45.1869 21.5056V8.40616C45.1869 7.26599 45.1732 6.27005 45.1458 5.41836C45.1184 4.56666 45.0778 3.82867 45.0238 3.2044C44.969 2.58089 44.9072 2.06117 44.8384 1.64525C44.7836 1.29251 44.708 0.943163 44.6119 0.598943V0.51881H49.5406V0.598943C49.4445 0.943669 49.3661 1.29287 49.3059 1.64525C49.2276 2.06117 49.1658 2.58089 49.1205 3.2044C49.0751 3.82791 49.034 4.5659 48.9972 5.41836C48.9628 6.27005 48.9456 7.26599 48.9456 8.40616V21.5056C48.9456 22.6458 48.9628 23.6417 48.9972 24.4934C49.0317 25.3451 49.0727 26.0796 49.1205 26.697C49.169 27.3144 49.2308 27.8311 49.3059 28.247C49.3661 28.5994 49.4445 28.9486 49.5406 29.2933V29.3735H44.6119L44.6107 29.2933ZM72.1868 5.10469H71.7327C71.5945 4.73934 71.4183 4.38875 71.207 4.05839C70.9484 3.64867 70.6284 3.27902 70.2576 2.96171C69.8353 2.60127 69.3542 2.31225 68.8341 2.10658C68.2073 1.86545 67.5375 1.7487 66.8638 1.76316C66.2515 1.75274 65.6428 1.85528 65.0695 2.06537C64.5743 2.24892 64.1269 2.53748 63.7599 2.9102C63.4046 3.27973 63.1338 3.71871 62.9654 4.19805C62.7807 4.7291 62.6899 5.2869 62.6967 5.84764C62.7011 6.82849 62.9909 7.78796 63.5322 8.61451C64.1358 9.55132 64.8374 10.4245 65.6258 11.22C66.4644 12.0785 67.3719 12.9371 68.3483 13.7957C69.3069 14.6369 70.2159 15.5305 71.0708 16.4721C71.8818 17.3589 72.5843 18.3347 73.1644 19.3798C73.7192 20.3841 74.0065 21.5083 73.9999 22.6492C73.9943 23.5439 73.8356 24.4315 73.5305 25.2753C73.2229 26.1505 72.7349 26.955 72.0965 27.6392C71.4004 28.3734 70.5518 28.9545 69.6075 29.3437C68.4567 29.8045 67.2203 30.0271 65.9767 29.9974C65.2253 30.0003 64.4756 29.9293 63.7388 29.7856C63.0741 29.6552 62.4196 29.4792 61.7802 29.259C61.2287 29.0706 60.6911 28.8453 60.1713 28.5847C59.7702 28.3853 59.3812 28.1636 59.006 27.9208L59.4754 23.4734H59.9906C60.1432 24.1069 60.3937 24.7141 60.7334 25.2741C61.0727 25.8387 61.5008 26.3478 62.002 26.7829C62.5119 27.2236 63.0943 27.5774 63.7247 27.8292C64.4 28.0991 65.1237 28.2349 65.8534 28.2287C66.4967 28.2386 67.1363 28.1331 67.7404 27.9174C68.2726 27.7245 68.76 27.4303 69.1744 27.0519C69.5738 26.6821 69.8868 26.2327 70.0921 25.7343C70.3093 25.2021 70.4173 24.6335 70.4101 24.0607C70.42 23.2561 70.2602 22.4581 69.9407 21.7162C69.6169 20.9859 69.1976 20.2995 68.6933 19.674C68.1575 19.0084 67.5714 18.3828 66.9401 17.8023C66.2868 17.1986 65.6164 16.5915 64.9287 15.981C64.2411 15.3705 63.5706 14.7431 62.9173 14.099C62.2715 13.4642 61.6848 12.7747 61.1641 12.0385C60.6476 11.3078 60.2273 10.5167 59.9132 9.68371C59.59 8.7958 59.4311 7.85896 59.4438 6.91684C59.4291 5.92877 59.6441 4.9503 60.0728 4.05495C60.4749 3.22582 61.0431 2.48356 61.7438 1.87191C62.4358 1.26967 63.2369 0.798743 64.1061 0.483323C64.9762 0.163101 65.8986 -0.000576213 66.8286 0.000235627C67.4649 -0.00404458 68.1002 0.0499971 68.7262 0.161647C69.2531 0.25648 69.7732 0.384191 70.2834 0.543994C70.7442 0.691286 71.1463 0.838958 71.4898 0.987013L72.3359 1.34876L72.1868 5.10469Z" fill="#9A9D9E"/>
</g>
<defs>
<clipPath id="clip0_721_41">
<rect width="74" height="30" fill="white"/>
</clipPath>
</defs>
</svg>
