<svg width="123" height="35" viewBox="0 0 123 35" fill="none" xmlns="http://www.w3.org/2000/svg">
<g clip-path="url(#clip0_721_14)">
<path d="M42.6921 17.6121C42.6762 16.3244 42.9322 15.0477 43.4434 13.8657C43.9294 12.7535 44.6486 11.7587 45.5522 10.9484C46.5012 10.1098 47.607 9.4678 48.8057 9.05938C50.1628 8.59901 51.5885 8.37361 53.0214 8.39291C54.4513 8.37627 55.8735 8.60298 57.2273 9.06332C58.43 9.4702 59.5396 10.1123 60.4917 10.9523C61.3953 11.7626 62.1145 12.7575 62.6005 13.8696C63.1117 15.0517 63.3677 16.3283 63.3518 17.6161C63.3668 18.912 63.1109 20.1968 62.6005 21.3881C62.115 22.5106 61.3961 23.5168 60.4917 24.34C59.5413 25.1897 58.4318 25.8425 57.2273 26.2605C55.8759 26.7321 54.4527 26.9646 53.0214 26.9477C51.5884 26.9646 50.1633 26.731 48.8106 26.2575C47.6099 25.8371 46.5042 25.1834 45.5571 24.334C44.6511 23.512 43.9306 22.5064 43.4434 21.3842C42.933 20.1929 42.6771 18.9081 42.6921 17.6121ZM46.3547 17.6121C46.3414 18.478 46.5128 19.3367 46.8576 20.1311C47.1806 20.8615 47.6574 21.5136 48.2556 22.0428C48.8743 22.5833 49.5927 22.9976 50.3703 23.2624C51.2235 23.5538 52.1199 23.6981 53.0214 23.6893C53.923 23.6978 54.8195 23.5531 55.6726 23.2614C56.4487 22.9977 57.1654 22.5836 57.7814 22.0428C58.3772 21.5115 58.8537 20.86 59.1794 20.1311C59.528 19.3378 59.7016 18.4786 59.6882 17.6121C59.7023 16.7494 59.5288 15.8939 59.1794 15.105C58.8546 14.3867 58.3776 13.7475 57.7814 13.2317C57.1628 12.7055 56.4461 12.307 55.6726 12.0595C54.8166 11.7815 53.9214 11.6434 53.0214 11.6503C52.1218 11.6418 51.2266 11.7783 50.3703 12.0546C49.5954 12.303 48.8769 12.7013 48.2556 13.2268C47.6571 13.7405 47.1797 14.3802 46.8576 15.1C46.5115 15.8916 46.34 16.7484 46.3547 17.6121ZM66.9898 13.0602H70.4099V15.0241C71.1597 14.4648 71.9605 13.9772 72.8017 13.5679C73.6043 13.1736 74.4441 12.8601 75.3089 12.6323L76.3145 15.7635C75.1162 15.8649 73.9431 16.1648 72.8431 16.6509C71.8819 17.0802 71.0451 17.746 70.4109 18.5862V26.6933H66.9898V13.0602ZM80.6574 11.1998C80.3452 11.2043 80.0344 11.1556 79.7385 11.0558C79.4829 10.9692 79.2458 10.8355 79.0395 10.6615C78.8521 10.5025 78.7006 10.3056 78.5949 10.0837C78.4912 9.86535 78.438 9.62646 78.4391 9.38473C78.4371 9.1391 78.4903 8.89617 78.5949 8.67389C78.6996 8.45315 78.8514 8.25798 79.0395 8.10206C79.2472 7.93171 79.484 7.80043 79.7385 7.7146C80.0344 7.61485 80.3452 7.56617 80.6574 7.57066C80.9732 7.56567 81.2876 7.61434 81.5871 7.7146C81.8416 7.80043 82.0785 7.93171 82.2861 8.10206C82.4742 8.25798 82.626 8.45315 82.7308 8.67389C82.8353 8.89617 82.8885 9.1391 82.8865 9.38473C82.8876 9.62646 82.8344 9.86535 82.7308 10.0837C82.6251 10.3056 82.4735 10.5025 82.2861 10.6615C82.0798 10.8355 81.8427 10.9692 81.5871 11.0558C81.2876 11.1561 80.9732 11.2048 80.6574 11.1998ZM78.9508 13.0602H82.3709V26.6933H78.9508V13.0602ZM85.929 19.8767C85.9217 18.9278 86.1236 17.989 86.5206 17.1271C86.9204 16.2674 87.4993 15.503 88.2183 14.8851C89.0046 14.2169 89.9101 13.7034 90.8872 13.3717C92.0196 12.9879 93.2093 12.8005 94.4049 12.8177C95.6005 12.8008 96.7902 12.9885 97.9226 13.3727C98.8997 13.7044 99.8052 14.2179 100.591 14.8861C101.312 15.5043 101.892 16.2694 102.292 17.13C102.689 17.9919 102.891 18.9308 102.884 19.8797C102.891 20.8286 102.689 21.7675 102.292 22.6294C101.892 23.4888 101.313 24.2528 100.593 24.8704C99.807 25.5379 98.9015 26.0507 97.9246 26.3818C96.7922 26.766 95.6025 26.9537 94.4069 26.9368C93.2113 26.954 92.0216 26.7666 90.8891 26.3827C89.9112 26.0507 89.005 25.5365 88.2183 24.8674C87.499 24.2499 86.9199 23.4858 86.5196 22.6264C86.122 21.7647 85.9193 20.8258 85.9261 19.8767H85.929ZM89.5227 19.8767C89.5203 20.4122 89.6326 20.942 89.852 21.4305C90.0757 21.9255 90.4028 22.3669 90.8113 22.725C91.2624 23.116 91.7841 23.4171 92.3483 23.6124C93.0113 23.8416 93.7093 23.953 94.4108 23.9416C95.1122 23.953 95.8103 23.8416 96.4733 23.6124C97.0375 23.4171 97.5592 23.116 98.0103 22.725C98.417 22.3664 98.7424 21.9251 98.9647 21.4305C99.1841 20.942 99.2964 20.4122 99.294 19.8767C99.2965 19.3381 99.1843 18.805 98.9647 18.3131C98.742 17.8161 98.4148 17.3729 98.0054 17.0137C97.5542 16.6227 97.0326 16.3216 96.4684 16.1264C95.8053 15.8971 95.1073 15.7857 94.4059 15.7971C93.7044 15.7857 93.0064 15.8971 92.3433 16.1264C91.7792 16.3216 91.2575 16.6227 90.8063 17.0137C90.3976 17.3731 90.0711 17.8163 89.849 18.3131C89.6294 18.805 89.5172 19.3381 89.5197 19.8767H89.5227ZM106.345 13.0602H109.765V14.2157C110.581 13.7386 111.458 13.3738 112.371 13.1312C113.166 12.9275 113.983 12.8229 114.803 12.8196C115.785 12.8103 116.761 12.9646 117.692 13.2761C118.546 13.5613 119.329 14.024 119.991 14.6337C120.657 15.2617 121.175 16.0289 121.51 16.8806C121.891 17.8718 122.076 18.9275 122.055 19.9891V26.6933H118.646V20.5472C118.657 19.8657 118.55 19.1876 118.329 18.5428C118.137 17.9854 117.825 17.4766 117.416 17.0521C117.009 16.6412 116.515 16.3257 115.972 16.1283C115.362 15.9092 114.718 15.8016 114.071 15.8109C113.689 15.8121 113.308 15.8507 112.933 15.9262C112.543 16.0035 112.161 16.1137 111.789 16.2555C111.412 16.3988 111.049 16.5767 110.705 16.7869C110.365 16.9937 110.047 17.2356 109.757 17.5086V26.6933H106.341L106.345 13.0602Z" fill="#9A9D9E"/>
<path d="M17.8741 34.8106C14.4903 34.8106 11.1826 33.8072 8.36913 31.9273C5.55566 30.0474 3.36283 27.3755 2.06794 24.2493C0.773037 21.1232 0.434233 17.6832 1.09437 14.3645C1.7545 11.0458 3.38392 7.99736 5.77658 5.6047C8.16924 3.21205 11.2177 1.58262 14.5364 0.922492C17.8551 0.262359 21.295 0.601163 24.4212 1.89606C27.5473 3.19096 30.2193 5.38379 32.0992 8.19726C33.9791 11.0107 34.9825 14.3185 34.9825 17.7022C34.9825 22.2396 33.18 26.5912 29.9716 29.7997C26.7631 33.0081 22.4115 34.8106 17.8741 34.8106ZM17.8741 31.3886C21.5041 31.3886 24.9854 29.9466 27.5521 27.3798C30.1189 24.813 31.5609 21.3317 31.5609 17.7017C31.5609 14.0717 30.1189 10.5904 27.5521 8.02364C24.9854 5.45686 21.5041 4.01485 17.8741 4.01485C14.2441 4.01485 10.7628 5.45686 8.19601 8.02364C5.62923 10.5904 4.18722 14.0717 4.18722 17.7017C4.18722 21.3317 5.62923 24.813 8.19601 27.3798C10.7628 29.9466 14.2441 31.3886 17.8741 31.3886ZM21.2962 14.2801H16.1635C15.7097 14.2801 15.2745 14.0998 14.9536 13.779C14.6328 13.4581 14.4525 13.0229 14.4525 12.5691C14.4525 12.1153 14.6328 11.6801 14.9536 11.3592C15.2745 11.0383 15.7097 10.858 16.1635 10.858H23.0067C23.4604 10.858 23.8955 11.0383 24.2162 11.359C24.537 11.6798 24.7173 12.1149 24.7173 12.5686V19.4118C24.7173 19.8656 24.537 20.3008 24.2161 20.6217C23.8952 20.9425 23.46 21.1228 23.0062 21.1228C22.5524 21.1228 22.1172 20.9425 21.7963 20.6217C21.4754 20.3008 21.2952 19.8656 21.2952 19.4118L21.2962 14.2801ZM16.1635 19.4127H11.0309C10.5771 19.4127 10.1419 19.2325 9.82101 18.9116C9.50012 18.5907 9.31985 18.1555 9.31985 17.7017C9.31985 17.2479 9.50012 16.8127 9.82101 16.4918C10.1419 16.1709 10.5771 15.9907 11.0309 15.9907H17.8741C18.3277 15.9907 18.7628 16.1709 19.0836 16.4917C19.4044 16.8125 19.5846 17.2475 19.5846 17.7012V24.5444C19.5846 24.9982 19.4044 25.4334 19.0835 25.7543C18.7626 26.0752 18.3274 26.2554 17.8736 26.2554C17.4198 26.2554 16.9846 26.0752 16.6637 25.7543C16.3428 25.4334 16.1625 24.9982 16.1625 24.5444L16.1635 19.4127Z" fill="#9A9D9E"/>
</g>
<defs>
<clipPath id="clip0_721_14">
<rect width="123" height="35" fill="white"/>
</clipPath>
</defs>
</svg>
