<svg width="127" height="25" viewBox="0 0 127 25" fill="none" xmlns="http://www.w3.org/2000/svg">
<g clip-path="url(#clip0_721_22)">
<path d="M37.3702 24.9413C36.5899 24.9764 35.8116 24.8358 35.0929 24.5297C34.3742 24.2237 33.7334 23.7602 33.2179 23.1733C32.1028 21.7146 31.5567 19.8999 31.6816 18.0681C31.6928 16.32 31.9732 14.5841 32.5131 12.9215C33.0077 11.2759 33.892 9.77393 35.0908 8.54297C35.6574 7.96431 36.3371 7.50866 37.0877 7.20446C37.8382 6.90027 38.6434 6.75406 39.4529 6.77496C40.4677 6.74195 41.4757 6.95135 42.3934 7.38579C43.1988 7.80441 43.8818 8.4249 44.3756 9.18657H44.5734L45.5972 7.17052H49.4305L48.6656 11.4004L48.1367 14.2753C47.4541 18.0634 47.1128 20.09 47.1128 20.3552C47.1063 20.4786 47.1282 20.602 47.1769 20.7157C47.2256 20.8293 47.2998 20.9303 47.3936 21.0108C47.5846 21.1664 47.8249 21.2486 48.0711 21.2424H49.0294L48.4678 24.4113C47.6145 24.7851 46.6891 24.9656 45.7579 24.9402C44.9471 24.9897 44.1451 24.7496 43.4949 24.2627C43.2195 24.0138 43.0063 23.7039 42.8723 23.3578C42.7384 23.0117 42.6874 22.639 42.7234 22.2696H42.5256C41.9365 23.1049 41.1541 23.7853 40.2451 24.2529C39.3561 24.71 38.3699 24.9462 37.3702 24.9413ZM39.1186 21.0075C39.6077 21.0188 40.0929 20.9182 40.5372 20.7132C40.9815 20.5083 41.3731 20.2046 41.6821 19.8252C42.3718 18.9979 42.8686 18.0274 43.1364 16.9841C43.4199 15.9818 43.5698 14.9465 43.5823 13.9049C43.5823 11.6801 42.6571 10.5678 40.8068 10.5678C40.3032 10.5493 39.8022 10.6484 39.3434 10.857C38.8846 11.0656 38.4807 11.3781 38.1635 11.7697C37.4868 12.6062 37.012 13.5873 36.7758 14.637C36.5195 15.674 36.3863 16.7377 36.3791 17.8059C36.3791 19.9447 37.2934 21.0141 39.1218 21.0141L39.1186 21.0075ZM55.2797 0.660156H59.8068L55.6097 24.5501H51.0794L55.2797 0.660156ZM64.4651 0.660156H68.9921L64.7961 24.5501H60.269L64.4651 0.660156ZM73.552 0.660156H78.0791L77.3142 4.92172H72.7926L73.552 0.660156ZM72.5282 7.16943H77.0553L73.9815 24.5501H69.4544L72.5282 7.16943ZM86.0461 24.9413C84.1062 25.0504 82.1739 24.6216 80.4623 23.7021C79.8562 23.3698 79.3517 22.8792 79.0026 22.2826C78.6536 21.6861 78.473 21.0059 78.4801 20.3147C78.4722 19.8743 78.5509 19.4365 78.7118 19.0264H83.1067C83.0399 19.1832 83.0061 19.3521 83.0072 19.5225C82.9961 19.828 83.0768 20.1299 83.2388 20.3891C83.4009 20.6483 83.6369 20.8531 83.9164 20.9769C84.6217 21.308 85.3951 21.4682 86.1739 21.4446C87.03 21.4642 87.8823 21.3241 88.6871 21.0315C88.99 20.9516 89.2579 20.7737 89.4492 20.5257C89.6405 20.2777 89.7444 19.9734 89.7449 19.6602C89.7437 19.389 89.6593 19.1246 89.5029 18.903C89.3466 18.6814 89.1259 18.5131 88.8707 18.4211C87.966 18.0349 87.0326 17.72 86.0789 17.4791C85.0476 17.2329 84.0324 16.9238 83.0389 16.5536C82.2588 16.2538 81.5579 15.7791 80.9901 15.1659C80.4009 14.5044 80.0928 13.6393 80.1312 12.7543C80.0938 11.8854 80.2808 11.0216 80.6743 10.246C81.0678 9.47051 81.6545 8.80945 82.3778 8.32661C84.0878 7.23142 86.0933 6.68893 88.1222 6.77278C89.9027 6.69974 91.6735 7.06877 93.2765 7.84691C93.8566 8.09648 94.3523 8.5083 94.7039 9.03285C95.0556 9.5574 95.2482 10.1724 95.2587 10.8038C95.2572 11.2976 95.1791 11.7883 95.0271 12.2582H90.6355L90.6682 11.9304C90.6783 11.6779 90.6169 11.4278 90.4913 11.2086C90.3657 10.9895 90.1808 10.8102 89.958 10.6912C89.3493 10.3852 88.6715 10.2429 87.9911 10.2782C87.1938 10.2458 86.399 10.3867 85.6614 10.6912C85.4138 10.7746 85.1975 10.9315 85.0413 11.141C84.8851 11.3505 84.7965 11.6026 84.7873 11.8637C84.7982 12.1164 84.8864 12.3596 85.04 12.5605C85.1936 12.7614 85.4052 12.9103 85.6461 12.987C86.4989 13.3379 87.3843 13.6037 88.2894 13.7803C89.3482 14.009 90.391 14.3061 91.4113 14.6698C92.2204 14.9671 92.9497 15.4477 93.5421 16.0739C94.1615 16.7665 94.4823 17.6756 94.4348 18.6035C94.508 19.5493 94.3259 20.4974 93.9074 21.3488C93.489 22.2001 92.8496 22.9234 92.056 23.4432C90.2361 24.5043 88.1511 25.024 86.0461 24.9413ZM101.907 24.9413C100.754 25.0534 99.6036 24.7094 98.7018 23.983C98.3793 23.6527 98.1276 23.2602 97.9619 22.8294C97.7962 22.3986 97.72 21.9386 97.7381 21.4774C97.8233 20.4567 97.9667 19.4418 98.1675 18.4375L99.4864 10.8704H97.4102L98.0659 7.16943H100.147L101.832 2.27955H105.566L104.675 7.16943H107.682L107.026 10.8704H104.018L102.596 18.9314C102.502 19.3785 102.436 19.831 102.398 20.2863C102.391 20.4211 102.415 20.5557 102.47 20.6792C102.524 20.8027 102.607 20.9115 102.712 20.9966C102.979 21.1789 103.299 21.2662 103.621 21.2446H105.207L104.645 24.4135C104.207 24.5632 103.76 24.6847 103.307 24.7774C102.845 24.8806 102.375 24.9355 101.902 24.9413H101.907ZM116.28 24.9413C114.887 24.9657 113.508 24.6479 112.266 24.0157C111.114 23.4268 110.143 22.5386 109.453 21.4446C108.754 20.3246 108.381 19.0312 108.379 17.7108C108.369 16.7475 108.447 15.7853 108.611 14.8359C108.89 12.5472 109.966 10.43 111.65 8.85548C113.511 7.37515 115.853 6.63389 118.226 6.77387C119.636 6.74857 121.031 7.06619 122.29 7.69939C123.448 8.28718 124.424 9.17808 125.115 10.2771C125.814 11.3971 126.186 12.6904 126.189 14.0109C126.198 14.9742 126.121 15.9364 125.957 16.8858C125.677 19.1774 124.594 21.2956 122.901 22.8651C121.021 24.3451 118.664 25.0839 116.276 24.9413H116.28ZM116.608 21.2403C117.247 21.2792 117.886 21.1848 118.487 20.963C119.087 20.7412 119.634 20.3969 120.094 19.952C121.029 18.8327 121.579 17.4424 121.663 15.9865C121.754 15.3517 121.798 14.7111 121.795 14.0699C121.811 13.5815 121.727 13.095 121.548 12.6404C121.369 12.1858 121.099 11.7727 120.754 11.4266C119.985 10.7526 118.982 10.4083 117.962 10.4683C117.323 10.4294 116.684 10.5238 116.083 10.7456C115.483 10.9674 114.936 11.3117 114.476 11.7566C113.541 12.8759 112.991 14.2661 112.907 15.7221C112.816 16.3568 112.772 16.9974 112.775 17.6387C112.759 18.127 112.843 18.6135 113.022 19.0682C113.201 19.5228 113.471 19.9359 113.816 20.2819C114.584 20.9577 115.586 21.3039 116.607 21.2457L116.608 21.2403Z" fill="#9A9D9E"/>
<path d="M17.9472 24.9505C15.9979 25.0232 14.0597 24.6263 12.2957 23.7934C10.8593 23.0535 9.73769 21.8206 9.13672 20.3207L13.7119 18.3538C14.3566 20.0279 15.8383 20.8769 18.1177 20.8769C19.6391 20.9277 21.1367 20.49 22.3913 19.628C23.5412 18.7997 24.3192 17.5524 24.557 16.1553H29.3158C29.0547 17.9386 28.3259 19.6208 27.2036 21.031C26.1325 22.3328 24.7512 23.3443 23.1868 23.9726C21.5198 24.6339 19.7405 24.966 17.9472 24.9505ZM30.3353 10.3104H25.4181C25.482 9.98427 25.5146 9.65276 25.5153 9.32042C25.5478 8.79099 25.4554 8.26134 25.2456 7.77414C25.0359 7.28694 24.7147 6.85579 24.3079 6.51543C23.3766 5.83786 22.2413 5.49966 21.091 5.55713C19.4148 5.49572 17.7768 6.0663 16.5016 7.15576L12.1307 5.14299C12.4728 4.77302 12.8378 4.42485 13.2235 4.10054C14.2776 3.24057 15.4826 2.58433 16.7769 2.16535C18.2232 1.70081 19.7348 1.47242 21.2538 1.48897C23.6205 1.37901 25.9636 2.00217 27.963 3.27336C28.7945 3.85665 29.464 4.64169 29.9088 5.55477C30.3536 6.46784 30.559 7.47899 30.5058 8.49324C30.4951 9.10205 30.4381 9.70916 30.3353 10.3093V10.3104Z" fill="#9A9D9E"/>
<path d="M0.882738 17.557L15.4945 12.3437L2.75564 7.13039L3.48994 2.94531L19.6435 10.1408L18.7988 14.8034L0.148438 22.0371L0.882738 17.557Z" fill="#9A9D9E"/>
<path d="M0.882738 17.5414L15.4945 12.3281L18.9704 13.7541L18.7988 14.7878L0.148438 22.0205L0.882738 17.5414Z" fill="#9A9D9E"/>
</g>
<defs>
<clipPath id="clip0_721_22">
<rect width="127" height="25" fill="white"/>
</clipPath>
</defs>
</svg>
