<svg width="126" height="32" viewBox="0 0 126 32" fill="none" xmlns="http://www.w3.org/2000/svg">
<g clip-path="url(#clip0_721_32)">
<path d="M4.88688 26.0811L13.2663 31.6677C13.593 31.8849 13.9766 32.0008 14.3689 32.0008C14.7612 32.0008 15.1448 31.8849 15.4715 31.6677L23.8509 26.0811C25.2139 25.1758 26.3314 23.9471 27.1037 22.5046C27.876 21.0621 28.2791 19.4508 28.2768 17.8146V2.20651C28.2768 1.67829 28.067 1.1717 27.6935 0.79819C27.32 0.42468 26.8134 0.214844 26.2852 0.214844H2.45262C1.92439 0.214844 1.4178 0.42468 1.04429 0.79819C0.670783 1.1717 0.460947 1.67829 0.460947 2.20651V17.8146C0.458698 19.4508 0.861728 21.0621 1.63404 22.5046C2.40635 23.9471 3.5239 25.1758 4.88688 26.0811ZM4.43433 4.18822H24.3012V17.8146C24.304 18.7975 24.0628 19.7658 23.5994 20.6327C23.1359 21.4996 22.4646 22.2379 21.6457 22.7816L14.3661 27.6313L7.08878 22.7771C6.27045 22.2339 5.59956 21.4963 5.13613 20.6302C4.6727 19.7642 4.4312 18.7968 4.43322 17.8146L4.43433 4.18822Z" fill="#9A9D9E"/>
<path d="M12.3853 20.0803C12.9119 20.0796 13.4167 19.8703 13.7894 19.4983L21.7318 11.5515L18.928 8.74219L12.3864 15.2837L9.81717 12.7156L7.00781 15.5249L10.9812 19.4983C11.3539 19.8703 11.8587 20.0796 12.3853 20.0803Z" fill="#9A9D9E"/>
<path d="M44.2347 24.6776C42.9609 24.6653 41.6928 24.5049 40.456 24.1996C39.3713 23.968 38.3156 23.6169 37.3081 23.1529L37.7507 19.0899C39.8902 20.2355 42.2585 20.889 44.6828 21.003C45.5524 21.0505 46.4162 20.8358 47.1624 20.3867C47.4552 20.1883 47.6916 19.9176 47.8487 19.6007C48.0057 19.2839 48.0781 18.9318 48.0587 18.5787C48.0789 18.0424 47.9035 17.5171 47.5652 17.1004C47.1739 16.6677 46.6887 16.3304 46.1467 16.1146C45.5293 15.8483 44.5434 15.4761 43.189 14.9981C42.0911 14.6385 41.0306 14.1734 40.0223 13.6095C39.216 13.1528 38.5326 12.5073 38.0306 11.7285C37.5229 10.876 37.2721 9.89514 37.3081 8.90361C37.2811 8.0785 37.445 7.25829 37.787 6.50691C38.129 5.75553 38.6399 5.09327 39.2798 4.57173C40.9094 3.3781 42.9073 2.79638 44.9229 2.9286C46.0841 2.92922 47.2417 3.05949 48.374 3.31698C49.4475 3.55412 50.501 3.87373 51.5253 4.27298L51.1391 8.18661C50.0415 7.69765 48.9081 7.29334 47.7489 6.97722C46.7495 6.71159 45.7201 6.57585 44.6861 6.57336C43.7839 6.51859 42.8842 6.71508 42.087 7.14098C41.8035 7.30876 41.5705 7.55 41.4128 7.83922C41.255 8.12844 41.1783 8.4549 41.1907 8.78411C41.1711 9.28609 41.3418 9.77696 41.6687 10.1584C42.0316 10.5478 42.4748 10.8537 42.9677 11.0546C43.5151 11.2936 44.3265 11.5824 45.402 11.921C47.3192 12.4254 49.1135 13.315 50.6755 14.5356C51.2324 15.047 51.6699 15.6747 51.9567 16.3743C52.2436 17.0738 52.3728 17.828 52.3352 18.5831C52.3515 20.1757 51.7397 21.7105 50.6324 22.8553C49.4949 24.0702 47.3623 24.6776 44.2347 24.6776ZM58.1564 24.5581C57.5861 24.5742 57.0183 24.4753 56.487 24.2674C55.9557 24.0594 55.4717 23.7466 55.0638 23.3476C54.6427 22.9175 54.3152 22.4049 54.1019 21.842C53.8886 21.279 53.7942 20.6781 53.8246 20.0769C53.8045 19.4836 53.9211 18.8937 54.1653 18.3526C54.4096 17.8116 54.7749 17.334 55.2331 16.9566C56.1987 16.1549 57.3337 15.5829 58.5526 15.2836C59.7536 14.9658 60.9858 14.7803 62.2272 14.7303C62.2578 14.0397 62.0167 13.3644 61.5556 12.8493C60.9765 12.4173 60.2579 12.215 59.5384 12.2817C58.8869 12.281 58.2385 12.3715 57.612 12.5506C56.8663 12.7766 56.1415 13.0664 55.4456 13.417L55.1136 10.3996C56.8 9.55295 58.6574 9.1026 60.5442 9.08286C61.2768 9.03352 62.0117 9.1358 62.703 9.3833C63.3943 9.63079 64.0271 10.0182 64.5619 10.5213C65.5989 11.8078 66.097 13.4461 65.9516 15.0922V19.1253C65.9362 19.6703 65.9714 20.2155 66.0567 20.754C66.0678 20.8783 66.1056 20.9986 66.1674 21.1069C66.2293 21.2152 66.3138 21.3088 66.4152 21.3814C66.6852 21.4893 66.976 21.5354 67.2661 21.5164H67.7441L67.4177 24.5581H66.0766C65.3613 24.5819 64.6518 24.4227 64.0153 24.0956C63.4727 23.8029 63.0257 23.3605 62.7273 22.821C62.1883 23.4009 61.5144 23.8388 60.7655 24.0956C59.9307 24.4052 59.0469 24.5619 58.1564 24.5581ZM59.7055 21.72C60.1477 21.7067 60.5834 21.6106 60.9901 21.4367C61.4553 21.2555 61.8813 20.9866 62.2449 20.6445V17.2387C61.1469 17.2737 60.0683 17.5375 59.0781 18.0133C58.6848 18.1591 58.344 18.4189 58.0991 18.7595C57.8543 19.1001 57.7167 19.506 57.7039 19.9253C57.6825 20.1727 57.7141 20.4219 57.7965 20.6561C57.879 20.8904 58.0103 21.1045 58.1819 21.284C58.6211 21.6103 59.165 21.7635 59.7099 21.7145L59.7055 21.72ZM75.723 31.7835C73.9665 31.8682 72.2203 31.4703 70.6741 30.6327C70.1051 30.3341 69.629 29.8852 69.2973 29.3349C68.9657 28.7846 68.7913 28.1539 68.7931 27.5113C68.8265 26.757 69.071 26.0271 69.4985 25.4047C69.9261 24.7824 70.5197 24.2924 71.2118 23.9905C70.8205 23.79 70.4912 23.4865 70.2596 23.1127C70.028 22.739 69.9027 22.3091 69.8973 21.8694C69.8924 21.4276 70.0344 20.9967 70.3012 20.6445C70.5875 20.2716 70.9605 19.9742 71.3878 19.7781C70.6432 19.2548 70.0507 18.5436 69.6705 17.7167C69.2771 16.8533 69.0791 15.9137 69.0907 14.9649C69.0784 13.9201 69.3247 12.8885 69.8077 11.9619C70.283 11.0584 71.0092 10.3115 71.899 9.81093C72.8952 9.26347 74.019 8.99045 75.1553 9.01979C76.3609 8.98872 77.5478 9.32188 78.5611 9.97579C78.9928 9.76395 79.4498 9.60815 79.921 9.51218C80.524 9.37911 81.1401 9.31416 81.7577 9.31854H82.7137L82.4747 11.6488H81.1248C80.7862 11.6488 80.5074 11.6588 80.2883 11.6787C80.9046 12.6617 81.2165 13.8051 81.1846 14.9649C81.197 16.0076 80.9563 17.0377 80.483 17.9668C80.0183 18.8721 79.2981 19.6212 78.4117 20.1211C77.4155 20.6686 76.2917 20.9416 75.1553 20.9123C74.6213 20.9026 74.0902 20.8324 73.572 20.7031C73.4735 20.7379 73.3885 20.8028 73.3289 20.8886C73.2693 20.9744 73.2382 21.0767 73.24 21.1811C73.2469 21.3177 73.2947 21.4491 73.3772 21.5582C73.4597 21.6673 73.573 21.7491 73.7025 21.793C74.2048 21.9915 74.7327 22.1174 75.2704 22.167L77.8397 22.499C81.2653 22.9571 82.9782 24.401 82.9782 26.8308C82.9927 27.5479 82.8232 28.2567 82.4857 28.8896C82.1483 29.5225 81.6542 30.0582 81.0507 30.4457C79.4524 31.4236 77.5936 31.8903 75.723 31.7835ZM75.1553 18.1649C75.5306 18.1862 75.9056 18.1204 76.2512 17.9726C76.5967 17.8248 76.9033 17.599 77.147 17.3129C77.6481 16.6365 77.895 15.8052 77.8441 14.9649C77.8928 14.1247 77.6441 13.2942 77.1415 12.6192C76.8978 12.3331 76.5912 12.1072 76.2456 11.9594C75.9001 11.8116 75.525 11.7458 75.1498 11.7672C74.7708 11.7443 74.3917 11.8093 74.042 11.9571C73.6923 12.1049 73.3815 12.3315 73.1338 12.6192C72.6312 13.2942 72.3824 14.1247 72.4312 14.9649C72.3827 15.8047 72.6314 16.6348 73.1338 17.3096C73.3817 17.5987 73.6933 17.8263 74.0441 17.9747C74.3948 18.1231 74.7752 18.1882 75.1553 18.1649ZM75.8723 28.9796C78.4217 28.9796 79.6963 28.3526 79.6963 27.0986C79.7107 26.8515 79.657 26.6052 79.5411 26.3865C79.4252 26.1679 79.2516 25.9851 79.0391 25.8582C78.3572 25.5135 77.6181 25.2961 76.8582 25.2165L73.572 24.7374C73.1008 24.8563 72.6807 25.124 72.3739 25.5007C72.0671 25.8775 71.89 26.3432 71.8691 26.8286C71.8636 27.1709 71.9601 27.5071 72.1463 27.7944C72.3325 28.0817 72.6 28.3071 72.9147 28.4419C73.846 28.8466 74.8582 29.0307 75.8723 28.9796ZM84.7762 3.34685H88.4807V7.05136H84.7762V3.34685ZM84.7762 9.32186H88.4807V24.2594H84.7762V9.32186ZM96.8147 24.5581C96.2629 24.5969 95.7092 24.514 95.193 24.3151C94.6767 24.1163 94.2105 23.8064 93.8272 23.4074C93.1518 22.6465 92.7889 21.6584 92.8115 20.6412V12.3658H90.6903L91.0223 9.31854H92.8148V6.03229L96.5193 5.64391V9.32186H99.8056V12.3691H96.516V19.1187C96.4934 19.6753 96.5387 20.2327 96.651 20.7784C96.6846 20.9191 96.7548 21.0485 96.8545 21.1534C96.9542 21.2583 97.0798 21.3351 97.2186 21.3759C97.7332 21.4883 98.2602 21.5336 98.7865 21.5109H99.8022L99.4736 24.5581H96.8147ZM107.092 24.5581C106.54 24.5971 105.986 24.5143 105.47 24.3156C104.954 24.117 104.488 23.8073 104.104 23.4085C103.429 22.6476 103.066 21.6595 103.088 20.6423V12.3669H100.967L101.299 9.31965H103.092V6.03339L106.796 5.64502V9.32186H110.083V12.3691H106.795V19.1187C106.772 19.6753 106.817 20.2326 106.929 20.7784C106.963 20.9191 107.033 21.0485 107.133 21.1534C107.232 21.2583 107.358 21.3351 107.497 21.3759C108.012 21.4884 108.539 21.5337 109.066 21.5109H110.081L109.751 24.5581H107.092ZM115.722 24.5581C115.153 24.5736 114.586 24.4745 114.055 24.2665C113.525 24.0586 113.041 23.7461 112.634 23.3476C112.213 22.9175 111.885 22.4049 111.672 21.842C111.459 21.279 111.364 20.6781 111.395 20.0769C111.374 19.4841 111.49 18.8944 111.733 18.3534C111.976 17.8124 112.341 17.3345 112.798 16.9566C113.763 16.1549 114.898 15.5829 116.117 15.2836C117.318 14.9658 118.551 14.7803 119.792 14.7303C119.823 14.0397 119.581 13.3644 119.12 12.8493C118.541 12.4173 117.823 12.215 117.103 12.2817C116.451 12.2809 115.803 12.3714 115.176 12.5506C114.43 12.7766 113.706 13.0665 113.01 13.417L112.678 10.3996C114.367 9.55274 116.227 9.10312 118.116 9.08507C118.848 9.03558 119.584 9.13778 120.275 9.38528C120.966 9.63278 121.599 10.0203 122.134 10.5235C123.171 11.81 123.67 13.4484 123.524 15.0944V19.1275C123.508 19.6725 123.543 20.2177 123.628 20.7563C123.639 20.8805 123.677 21.0008 123.739 21.1091C123.801 21.2174 123.885 21.311 123.987 21.3836C124.257 21.4916 124.548 21.5378 124.839 21.5186H125.317L124.987 24.5581H123.643C122.927 24.5819 122.218 24.4227 121.581 24.0956C121.039 23.8027 120.592 23.3603 120.294 22.821C119.757 23.3998 119.086 23.8376 118.34 24.0956C117.504 24.4059 116.618 24.5626 115.726 24.5581H115.722ZM117.271 21.72C117.714 21.7067 118.149 21.6106 118.556 21.4367C119.021 21.2555 119.447 20.9866 119.811 20.6445V17.2387C118.713 17.2737 117.634 17.5375 116.644 18.0133C116.251 18.1591 115.91 18.4189 115.665 18.7595C115.42 19.1001 115.283 19.506 115.27 19.9253C115.249 20.1738 115.282 20.4238 115.367 20.6585C115.451 20.8933 115.584 21.1073 115.758 21.2863C116.195 21.6102 116.737 21.7625 117.279 21.7145L117.271 21.72Z" fill="#9A9D9E"/>
</g>
<defs>
<clipPath id="clip0_721_32">
<rect width="126" height="32" fill="white"/>
</clipPath>
</defs>
</svg>
