<svg width="129" height="41" viewBox="0 0 129 41" fill="none" xmlns="http://www.w3.org/2000/svg">
<g clip-path="url(#clip0_721_5)">
<path d="M26.5167 0.267345C26.0411 0.148437 25.4465 0.148438 24.9709 0.148438H15.4582C14.9825 0.148438 14.388 0.148437 13.9123 0.267345C6.06436 0.980799 0 7.6397 0 15.6066V25.1193C0 33.324 6.42108 40.1019 14.6258 40.5775H15.4582H24.9709H25.8032C34.008 40.1019 40.4291 33.324 40.4291 25.1193V15.6066C40.4291 7.6397 34.3647 0.980799 26.5167 0.267345ZM36.3861 25.1193C36.3861 31.4215 31.2731 36.5346 24.9709 36.5346H15.4582C9.15599 36.5346 4.04291 31.4215 4.04291 25.1193V15.6066C4.04291 9.30443 9.15599 4.19134 15.4582 4.19134H24.9709C31.2731 4.19134 36.3861 9.30443 36.3861 15.6066V25.1193Z" fill="#9A9D9E"/>
<path d="M29.1305 22.3897C28.7738 22.1519 28.2982 21.9141 27.9414 21.9141C27.228 21.9141 26.6334 22.2708 26.1578 22.7464C24.7309 24.5301 22.4716 25.6002 20.2124 25.7192C17.8342 25.6002 15.6938 24.5301 14.2669 22.7464C13.5535 21.7952 12.2455 21.6762 11.2942 22.3897C10.4618 23.1032 10.224 24.2922 10.8185 25.2435C13.0778 28.0973 16.5262 29.7621 20.0934 29.881C23.7796 29.7621 27.1091 28.0973 29.3683 25.2435C29.7251 24.7679 29.844 24.2922 29.7251 23.6977C29.844 23.2221 29.6062 22.6275 29.1305 22.3897Z" fill="#9A9D9E"/>
<path opacity="0.999" d="M55.6506 29.879C53.6292 29.9979 51.6077 29.5223 49.8241 28.4521C49.1106 28.0954 48.7539 27.3819 48.7539 26.6684C48.7539 26.3117 48.8728 25.955 49.1106 25.5983C49.3485 25.3604 49.7052 25.1226 50.0619 25.2415C50.6564 25.2415 51.1321 25.4794 51.6077 25.7172C52.2023 26.0739 52.9157 26.3117 53.5103 26.4306C54.2237 26.6684 54.9372 26.6684 55.7695 26.6684C56.483 26.6684 57.3154 26.5495 57.9099 26.1928C58.3855 25.955 58.7423 25.4794 58.7423 24.8848C58.7423 24.5281 58.6233 24.2903 58.3855 23.9335C58.0288 23.6957 57.6721 23.4579 57.3154 23.339C56.483 23.1012 55.6506 22.8634 54.8183 22.7444C53.2724 22.5066 51.8455 21.9121 50.6564 21.0797C49.8241 20.3663 49.3485 19.1772 49.3485 18.107C49.3485 17.1557 49.5863 16.2045 50.1808 15.491C50.7754 14.6586 51.6077 14.0641 52.559 13.7074C53.6292 13.2317 54.8183 12.9939 56.0074 13.1128C56.9586 13.1128 57.791 13.2317 58.6234 13.4695C59.4557 13.7074 60.1692 14.0641 60.8826 14.4208C61.4772 14.7775 61.9528 15.491 61.9528 16.2045C61.9528 16.5612 61.8339 17.0368 61.5961 17.2746C61.3583 17.5125 61.0015 17.7503 60.6448 17.7503C60.407 17.7503 60.1692 17.7503 59.9314 17.6314C59.5746 17.5125 59.3368 17.3935 59.099 17.1557C58.6234 16.9179 58.0288 16.6801 57.4343 16.4423C56.8397 16.2045 56.2452 16.2045 55.7695 16.2045C55.0561 16.2045 54.4615 16.3234 53.867 16.6801C53.3914 16.9179 53.1535 17.5125 53.1535 17.9881C53.1535 18.4637 53.3914 19.0583 53.867 19.2961C54.6994 19.7717 55.6506 20.0095 56.7208 20.1285C57.9099 20.3663 59.099 20.723 60.1692 21.1986C60.8826 21.5554 61.4772 22.031 61.9528 22.6255C62.3095 23.339 62.5473 24.0524 62.5473 24.8848C62.5473 26.3117 61.8339 27.7386 60.6448 28.4521C59.099 29.4034 57.4343 29.879 55.6506 29.879ZM85.6157 12.9939C87.1615 12.875 88.5884 13.4695 89.6586 14.5397C90.7288 15.9666 91.2044 17.7503 91.0855 19.6528V27.7386C91.0855 28.3332 90.9666 28.8088 90.491 29.1655C90.0153 29.5223 89.5397 29.7601 88.9451 29.6412C88.3506 29.6412 87.875 29.5223 87.5182 29.1655C87.1615 28.8088 86.9237 28.2143 86.9237 27.7386V19.6528C87.0426 18.7015 86.8048 17.8692 86.3291 17.0368C85.8535 16.4423 85.1401 16.2045 84.3077 16.2045C83.3564 16.2045 82.4051 16.5612 81.6917 17.2746C80.9782 18.107 80.6215 19.1772 80.7404 20.2474V27.6197C80.7404 28.2143 80.6215 28.6899 80.1459 29.0466C79.7892 29.4034 79.1946 29.5223 78.719 29.5223C78.1244 29.5223 77.6488 29.4034 77.2921 29.0466C76.9353 28.6899 76.6975 28.0954 76.6975 27.6197V19.5339C76.8164 18.5826 76.5786 17.7503 76.103 16.9179C75.6273 16.3234 74.9139 16.0855 74.0815 16.0855C73.1302 16.0855 72.179 16.4423 71.4655 17.1557C70.7521 17.9881 70.5142 19.0583 70.5142 20.1285V27.5008C70.5142 28.0954 70.2764 28.571 69.9197 28.9277C69.563 29.2844 68.9684 29.4034 68.4928 29.4034C67.8983 29.4034 67.4226 29.2844 67.0659 28.9277C66.7092 28.571 66.4713 27.9764 66.4713 27.5008V15.0154C66.4713 14.4208 66.7092 13.9452 67.0659 13.5885C67.5415 13.2317 68.0172 13.1128 68.4928 13.1128C68.9684 13.1128 69.563 13.2317 69.9197 13.5885C70.2764 13.9452 70.5142 14.4208 70.5142 15.0154V15.8477C70.9899 15.0154 71.7033 14.3019 72.5357 13.8263C73.487 13.3506 74.4382 13.1128 75.5084 13.1128C77.6488 12.875 79.6702 14.183 80.3837 16.2045C80.8593 15.2532 81.5728 14.5397 82.5241 13.9452C83.4753 13.3506 84.5455 12.9939 85.6157 12.9939ZM97.9822 29.7601C97.3877 29.7601 96.912 29.6412 96.5553 29.2844C96.1986 28.9277 95.9608 28.3332 95.9608 27.8575V15.0154C95.9608 14.4208 96.0797 13.9452 96.5553 13.5885C96.912 13.2317 97.5066 13.1128 97.9822 13.1128C98.5768 13.1128 99.0524 13.2317 99.4091 13.5885C99.7659 13.9452 100.004 14.5397 100.004 15.0154V27.7386C100.004 28.3332 99.7659 28.8088 99.4091 29.1655C99.0524 29.6412 98.5768 29.7601 97.9822 29.7601ZM97.9822 10.1401C97.3877 10.1401 96.6742 9.90228 96.1986 9.54555C95.723 9.18883 95.4851 8.59428 95.4851 7.99974C95.4851 7.40519 95.723 6.81065 96.1986 6.45392C96.6742 5.97828 97.3877 5.85938 97.9822 5.85938C98.5768 5.85938 99.2902 6.09719 99.7659 6.45392C100.241 6.81065 100.479 7.40519 100.479 7.99974C100.479 8.59428 100.241 9.18883 99.7659 9.54555C99.2902 10.0212 98.6957 10.1401 97.9822 10.1401ZM107.019 29.7601C106.425 29.7601 105.949 29.6412 105.592 29.2844C105.236 28.9277 104.998 28.3332 104.998 27.8575V8.11865C104.998 7.5241 105.117 7.04846 105.592 6.69174C106.068 6.33501 106.544 6.09719 107.019 6.09719C107.614 6.09719 108.089 6.2161 108.446 6.57283C108.803 6.92956 109.041 7.5241 109.041 7.99974V27.7386C109.041 28.3332 108.803 28.8088 108.446 29.1655C108.089 29.6412 107.614 29.7601 107.019 29.7601ZM126.877 25.1226C127.234 25.1226 127.591 25.2415 127.828 25.5983C128.066 25.955 128.185 26.3117 128.185 26.7874C128.185 27.5008 127.709 28.2143 126.996 28.4521C126.164 28.9277 125.331 29.2844 124.499 29.4034C123.667 29.6412 122.715 29.7601 121.764 29.7601C119.505 29.879 117.245 29.0466 115.581 27.5008C114.035 25.8361 113.203 23.5768 113.321 21.3175C113.321 19.7717 113.678 18.3448 114.273 16.9179C114.867 15.7288 115.819 14.6586 117.008 13.9452C118.197 13.2317 119.624 12.875 121.051 12.875C122.359 12.875 123.667 13.2317 124.856 13.8263C125.926 14.4208 126.758 15.3721 127.353 16.5612C127.947 17.8692 128.304 19.2961 128.304 20.723C128.304 21.6743 127.828 22.1499 126.996 22.1499H117.245C117.245 23.339 117.721 24.5281 118.553 25.4794C119.386 26.1928 120.575 26.6684 121.764 26.5495C122.359 26.5495 123.072 26.4306 123.667 26.3117C124.261 26.0739 124.856 25.8361 125.45 25.5983C125.807 25.3604 126.283 25.2415 126.877 25.1226ZM121.169 15.9666C120.218 15.9666 119.148 16.3234 118.435 17.0368C117.721 17.8692 117.245 18.9394 117.245 20.1285H124.737C124.737 19.0583 124.38 17.9881 123.785 17.0368C123.072 16.2045 122.121 15.8477 121.169 15.9666Z" fill="#9A9D9E"/>
</g>
<defs>
<clipPath id="clip0_721_5">
<rect width="129" height="41" fill="white"/>
</clipPath>
</defs>
</svg>
