<svg width="112" height="43" viewBox="0 0 112 43" fill="none" xmlns="http://www.w3.org/2000/svg">
<path d="M27.0231 3.61808C27.2542 4.16175 27.3582 4.75097 27.3272 5.34088C27.2962 5.9308 27.1309 6.50586 26.8441 7.02228C26.1772 8.15737 25.1205 9.01137 23.8707 9.42522C22.0436 10.1259 20.0453 10.2475 18.1467 9.7737C16.2492 9.35501 14.4963 8.44178 13.0659 7.12671L13.5409 6.60935C14.3719 7.11355 15.2856 7.46691 16.2396 7.65312C17.3846 7.85842 18.5583 7.84283 19.6974 7.60722L19.5482 6.48719C19.3504 5.39784 19.4968 4.27395 19.9671 3.27165C20.4105 2.37929 21.1808 1.69218 22.1178 1.35315C22.5853 1.15409 23.09 1.05777 23.5979 1.07073C24.1058 1.08368 24.605 1.20561 25.0617 1.42824C25.9772 1.87296 26.6815 2.65932 27.0231 3.61808Z" fill="#9A9D9E"/>
<path d="M7.24299 33.5723C5.96745 33.5889 4.69612 33.4225 3.46779 33.0783C2.40106 32.769 1.366 32.3595 0.376448 31.8551L0.419593 26.7489H0.851044L2.30719 29.3236C2.80944 30.3144 3.51951 31.1852 4.38894 31.8767C5.2379 32.4638 6.25472 32.7591 7.28613 32.718C8.4647 32.7741 9.6302 32.4509 10.6115 31.7958C11.0118 31.5228 11.3374 31.154 11.5586 30.7229C11.7798 30.2918 11.8895 29.8123 11.8778 29.3279C11.8947 28.899 11.8234 28.4713 11.6683 28.0711C11.5132 27.6709 11.2776 27.3068 10.9761 27.0013C10.0012 26.2086 8.85721 25.6506 7.63237 25.3704L5.82567 24.8182C4.25878 24.4085 2.8341 23.5774 1.70639 22.415C0.706133 21.3304 0.16759 19.899 0.204946 18.4241C0.197438 17.5076 0.393773 16.6009 0.779742 15.7697C1.16571 14.9384 1.73166 14.2033 2.43663 13.6177C4.25142 12.1933 6.52881 11.4903 8.83072 11.6438C9.89289 11.6375 10.9519 11.7599 11.9846 12.0084C12.9776 12.2539 13.9362 12.6217 14.8387 13.1032L14.5809 17.7413H14.1494L12.648 15.0803C12.2512 14.3137 11.7038 13.635 11.0387 13.0848C10.3241 12.6493 9.49181 12.4469 8.65707 12.5056C7.68211 12.5064 6.72825 12.7896 5.91088 13.3211C5.50733 13.5553 5.1746 13.8943 4.94789 14.3022C4.72118 14.71 4.60893 15.1716 4.623 15.638C4.60764 16.083 4.69901 16.5252 4.88947 16.9277C5.07993 17.3302 5.36396 17.6813 5.71781 17.9516C6.70328 18.6527 7.79616 19.1889 8.95369 19.5394L10.8844 20.097C12.5829 20.5059 14.1219 21.4094 15.3068 22.6933C16.2021 23.8194 16.6729 25.2244 16.6367 26.6626C16.6635 27.6369 16.4529 28.6032 16.0229 29.4779C15.593 30.3527 14.9566 31.1097 14.1688 31.6836C12.1304 33.057 9.69641 33.7208 7.24299 33.5723ZM18.4866 32.9337V32.5023L19.0874 32.3308C19.5616 32.2256 19.9812 31.951 20.2674 31.5585C20.5014 31.14 20.6135 30.6643 20.591 30.1854V16.7543C20.6233 16.2814 20.5104 15.8098 20.2674 15.4028C19.9667 15.0539 19.5452 14.8316 19.0874 14.7805L18.4866 14.6521V14.2206L26.339 11.6848L26.7704 12.1162L26.6421 18.2105V30.2264C26.6201 30.7051 26.7326 31.1803 26.9668 31.5984C27.2408 31.9839 27.6443 32.2579 28.1036 32.3707L28.5351 32.4991V32.9305L18.4866 32.9337ZM39.7711 25.5042C38.045 25.5557 36.3292 25.2195 34.7501 24.5205V25.9766C34.7172 26.3634 34.8387 26.7475 35.0881 27.0451C35.3375 27.3426 35.6945 27.5293 36.0812 27.5643L44.1493 29.0658C45.3923 29.295 46.6129 29.6324 47.7972 30.0743C48.8026 30.4337 49.7025 31.0384 50.415 31.8335C51.1142 32.7144 51.4654 33.8215 51.402 34.9443C51.3981 36.357 50.9139 37.7263 50.0289 38.8274C48.9561 40.1287 47.5563 41.1212 45.9732 41.703C43.8395 42.4923 41.5739 42.864 39.2998 42.7978C37.4566 42.8601 35.6156 42.6211 33.8495 42.0902C32.7407 41.7745 31.7486 41.1412 30.9954 40.2684C30.4626 39.5962 30.1682 38.7661 30.1584 37.9084C30.1878 36.7892 30.5543 35.705 31.2101 34.7976C31.8819 33.7812 32.768 32.9241 33.8063 32.2866C33.0497 32.0352 32.3801 31.5739 31.8756 30.9566C31.4885 30.4516 31.2775 29.8337 31.2748 29.1974C31.2736 28.6296 31.4297 28.0726 31.7257 27.5881C32.0505 27.0523 32.4162 26.5424 32.8194 26.0629L34.2356 24.2605C33.2329 23.7075 32.4072 22.8821 31.8537 21.8797C31.3002 20.8773 31.0415 19.7387 31.1076 18.5956C31.0775 17.6467 31.2604 16.7031 31.6429 15.8343C32.0253 14.9654 32.5976 14.1932 33.3177 13.5745C34.7911 12.2874 36.9584 11.6438 39.8197 11.6438C41.1186 11.6215 42.4134 11.7949 43.6607 12.1583C44.6604 12.4478 45.5878 12.9451 46.382 13.6177C47.2717 13.4819 48.1428 13.2445 48.9783 12.9101C49.7853 12.5863 50.5324 12.1294 51.1884 11.5586L51.7892 11.99V14.1786H46.9354C47.9945 15.4023 48.5469 16.9839 48.48 18.6009C48.5019 19.5377 48.3154 20.4677 47.9339 21.3235C47.5524 22.1794 46.9855 22.9398 46.2742 23.5497C44.8001 24.8527 42.6324 25.5042 39.7711 25.5042ZM39.728 24.6413C40.238 24.67 40.7456 24.552 41.1906 24.3012C41.6356 24.0504 41.9995 23.6773 42.239 23.2261C42.8722 21.7374 43.1442 20.12 43.0329 18.506C43.1507 16.9124 42.8782 15.3142 42.239 13.8496C42.0016 13.4202 41.6486 13.0659 41.22 12.827C40.7914 12.5881 40.3044 12.4741 39.8143 12.4981C39.3233 12.482 38.8376 12.6042 38.4127 12.8508C37.9878 13.0974 37.6407 13.4584 37.4111 13.8927C36.7596 15.3692 36.4796 16.9827 36.5957 18.5923C36.4866 20.1889 36.7449 21.7892 37.3507 23.2703C37.5717 23.7051 37.914 24.0664 38.3361 24.3107C38.7582 24.555 39.242 24.6717 39.7291 24.6467L39.728 24.6413ZM33.3307 36.5331C33.2805 37.2473 33.3957 37.9634 33.6674 38.6259C33.939 39.2883 34.3597 39.8791 34.8968 40.3525C36.3573 41.331 38.1065 41.7851 39.8585 41.6404C41.7189 41.7608 43.576 41.3604 45.2214 40.4841C45.7872 40.1516 46.2535 39.6733 46.5714 39.0992C46.8894 38.5251 47.0475 37.8762 47.0292 37.2202C47.0416 36.8523 46.9685 36.4865 46.8158 36.1515C46.6631 35.8165 46.4349 35.5215 46.1491 35.2895C45.2577 34.6818 44.2327 34.2988 43.1613 34.1731L35.3941 32.718L34.707 32.5465C34.2908 33.1494 33.9588 33.8062 33.72 34.4988C33.4761 35.15 33.3445 35.8379 33.3307 36.5331ZM53.2033 32.9337V32.5023L53.8041 32.3308C54.263 32.2437 54.6704 31.9824 54.9409 31.6016C55.1767 31.1822 55.3021 30.7097 55.3055 30.2285V16.7932C55.3416 16.3098 55.2395 15.8261 55.0111 15.3985C54.7222 15.0463 54.3058 14.8226 53.8526 14.7761L53.2054 14.6046V14.1732L60.5401 11.6837L60.9715 12.1152L61.3146 15.0329C62.2709 14.0791 63.3609 13.2695 64.5504 12.6297C65.7128 11.9855 67.0193 11.6459 68.3483 11.6427C69.5083 11.5864 70.6588 11.8779 71.6521 12.4797C72.5437 13.1203 73.2058 14.0305 73.5408 15.076C74.6079 14.0512 75.8322 13.2039 77.1671 12.566C78.3487 11.9798 79.6462 11.6647 80.965 11.6438C81.7721 11.5751 82.5849 11.6688 83.3552 11.9194C84.1255 12.1701 84.8378 12.5726 85.4499 13.1032C86.5145 14.385 87.0311 16.0348 86.8877 17.6949V30.2685C86.8435 30.7471 86.9763 31.2254 87.2609 31.6128C87.5455 32.0002 87.9623 32.2698 88.4323 32.3707L88.908 32.5023V32.9337H78.9954V32.5023L79.4269 32.3739C79.8862 32.2612 80.2897 31.9871 80.5637 31.6016C80.7977 31.1831 80.9098 30.7075 80.8873 30.2285V17.093C80.9826 16.2188 80.7522 15.3401 80.2401 14.6251C79.9592 14.3812 79.632 14.1966 79.2779 14.0822C78.9239 13.9679 78.5505 13.9262 78.18 13.9596C77.4299 13.9612 76.6896 14.13 76.013 14.4536C75.2142 14.8476 74.4711 15.3456 73.8029 15.9346C73.9518 16.423 74.0456 16.9267 74.0823 17.436C74.1254 17.9797 74.147 18.5517 74.147 19.1521V30.262C74.114 30.7385 74.2511 31.2113 74.534 31.5962C74.8168 31.9811 75.227 32.2533 75.6916 32.3642L76.0766 32.5023V32.9337H66.1209V32.5023L66.7217 32.3308C67.1768 32.2187 67.5787 31.9517 67.8586 31.5758C68.0944 31.1658 68.2068 30.6965 68.1822 30.2242V17.1362C68.2616 16.2735 68.0418 15.4097 67.5598 14.6898C67.2802 14.4211 66.9453 14.2166 66.5784 14.0907C66.2116 13.9648 65.8217 13.9204 65.436 13.9607C64.7484 13.9681 64.0722 14.1374 63.4621 14.4547C62.7168 14.844 62.0244 15.3272 61.4019 15.8925V30.2685C61.3545 30.7414 61.4807 31.2154 61.757 31.6022C62.0332 31.989 62.4407 32.2621 62.9034 32.3707L63.2884 32.5023V32.9337H53.2033ZM96.5889 33.5809C95.0691 33.6287 93.5832 33.1258 92.4049 32.1647C91.8295 31.6584 91.3778 31.027 91.0846 30.3188C90.7914 29.6107 90.6645 28.8448 90.7136 28.0799C90.7509 27.345 90.9559 26.6285 91.313 25.9851C91.6701 25.3417 92.1698 24.7887 92.7738 24.3684C94.6981 23.0103 96.9207 22.1347 99.2542 21.8153C99.7122 21.7297 100.227 21.6366 100.799 21.5359C101.37 21.4352 101.971 21.3274 102.601 21.2123V17.8222C102.707 16.4184 102.464 15.0102 101.894 13.7234C101.669 13.3418 101.344 13.03 100.953 12.8224C100.562 12.6148 100.121 12.5198 99.6792 12.5477C99.3752 12.533 99.0718 12.585 98.7901 12.7C98.5083 12.8149 98.2552 12.9901 98.0483 13.2132C97.5653 13.8834 97.2961 14.6838 97.276 15.5096L97.1897 15.982C97.2213 16.9616 96.9019 17.9202 96.289 18.6851C96.0331 18.9635 95.7209 19.1844 95.3732 19.3332C95.0255 19.482 94.6501 19.5552 94.272 19.548C93.5903 19.571 92.9271 19.3241 92.4265 18.8609C92.181 18.6226 91.9891 18.3347 91.8634 18.0166C91.7377 17.6984 91.6811 17.3571 91.6973 17.0154C91.6856 16.4641 91.7882 15.9164 91.9988 15.4068C92.2093 14.8972 92.5231 14.4368 92.9205 14.0545C93.8349 13.1973 94.9462 12.5783 96.1564 12.2522C97.5786 11.8408 99.053 11.6384 100.533 11.6514C102.665 11.5139 104.77 12.18 106.435 13.5185C107.822 14.7632 108.516 16.7874 108.516 19.5911V29.0755C108.516 30.3627 109.117 31.0062 110.319 31.0062H111.263L111.649 31.3492C111.162 31.985 110.558 32.5226 109.871 32.9337C109.026 33.3502 108.087 33.5423 107.146 33.4914C106.08 33.5503 105.027 33.239 104.164 32.6102C103.431 32.0184 102.924 31.1929 102.726 30.2717C101.926 31.1361 101.041 31.9194 100.087 32.6102C99.0515 33.2916 97.8271 33.6283 96.5889 33.5723V33.5809ZM99.2067 30.9631C99.769 30.9656 100.323 30.8253 100.816 30.5554C101.449 30.1908 102.045 29.7668 102.597 29.2891V22.0795L101.734 22.251C101.446 22.3085 101.117 22.3657 100.747 22.4225C99.5546 22.6972 98.4623 23.299 97.5931 24.1602C97.1912 24.6014 96.8805 25.1176 96.6787 25.6792C96.477 26.2408 96.3882 26.8367 96.4174 27.4327C96.3447 28.3841 96.6362 29.3276 97.2328 30.0721C97.4788 30.3528 97.7825 30.577 98.1233 30.7292C98.464 30.8815 98.8335 30.9584 99.2067 30.9545V30.9631Z" fill="#9A9D9E"/>
</svg>
