<svg width="32" height="32" viewBox="0 0 32 32" fill="none" xmlns="http://www.w3.org/2000/svg">
<g clip-path="url(#clip0_718_4670)">
<path d="M18.496 27.386L15.996 28.836L4.99598 22.42V16.56L15.01 10.72C15.3 10.88 15.63 10.98 15.994 10.98C17.094 10.98 17.994 10.08 17.994 8.97998C17.994 7.86998 17.094 6.97998 15.994 6.97998C14.884 6.97998 13.994 7.86998 13.994 8.97998L3.47998 15.11C3.16998 15.28 2.97998 15.61 2.97998 15.97V22.97C2.97998 23.32 3.15998 23.65 3.47598 23.83L15.476 30.83C15.626 30.92 15.806 30.96 15.976 30.96C16.146 30.96 16.316 30.91 16.476 30.82L19.476 29.07L18.466 27.34L18.496 27.386Z" fill="white"/>
<path d="M28.5042 8.13599L25.5042 6.38599L24.4942 8.10599L26.9942 9.56599V22.416L22.4012 25.086L11.9922 18.993C11.9922 18.983 11.9922 18.983 11.9922 18.973C11.9922 17.863 11.0922 16.973 9.99219 16.973C8.88219 16.973 7.99219 17.863 7.99219 18.973C7.99219 20.073 8.88219 20.973 9.99219 20.973C10.3422 20.973 10.6822 20.863 10.9722 20.703L21.8922 27.093C22.0422 27.183 22.2222 27.223 22.3922 27.223C22.5622 27.223 22.7322 27.173 22.8922 27.083L28.4822 23.813C28.7822 23.633 28.9722 23.303 28.9722 22.943V8.94299C28.9722 8.58299 28.7822 8.25299 28.4722 8.07299L28.5042 8.13599Z" fill="white"/>
<path d="M23 17.277V5.48998C23 5.12998 22.81 4.79998 22.5 4.61998L16.5 1.11998C16.34 1.01998 16.17 0.97998 15.99 0.97998C15.81 0.97998 15.64 1.01998 15.48 1.10998L3.47998 8.10998C3.16998 8.27998 2.97998 8.60998 2.97998 8.96998V11.96H4.97998V9.52998L15.98 3.11298L20.98 6.02998V17.23C20.38 17.57 19.98 18.21 19.98 18.95C19.98 20.05 20.87 20.95 21.98 20.95C23.08 20.95 23.98 20.05 23.98 18.95C23.98 18.21 23.57 17.57 22.98 17.22L23 17.277Z" fill="white"/>
</g>
<defs>
<clipPath id="clip0_718_4670">
<rect width="32" height="32" fill="white"/>
</clipPath>
</defs>
</svg>
