<svg width="26" height="26" viewBox="0 0 26 26" fill="none" xmlns="http://www.w3.org/2000/svg">
<g clip-path="url(#clip0_711_5017)">
<path d="M22.75 14.625H24.375V22.75H22.75V14.625Z" fill="#3959FF"/>
<path d="M19.5 11.375H21.125V22.75H19.5V11.375Z" fill="#3959FF"/>
<path d="M16.25 17.875H17.875V22.75H16.25V17.875Z" fill="#3959FF"/>
<path d="M18.0131 8.12499L19.2969 7.09311C18.0944 5.58999 16.4044 4.56624 14.5275 4.20061C10.1156 3.34749 5.85 6.22374 5.005 10.6356C4.99687 10.6356 4.99687 10.6356 4.99687 10.6356V10.6348C1.81187 11.2035 -0.365629 14.161 0.0243714 17.3704C0.463121 20.4742 3.1525 22.7654 6.28875 22.7248H12.9756V21.0998H6.22375H6.21562C4.01375 21.1323 2.10437 19.5967 1.6575 17.4517C1.2025 15.0223 2.80312 12.6823 5.2325 12.2273C5.24062 12.2192 5.24875 12.2192 5.25687 12.2192L6.34562 12.016L6.51625 11.1142C7.01187 8.33542 9.20562 6.17417 11.9925 5.71105H11.9917C12.8042 5.58917 13.6329 5.62167 14.4373 5.81667C15.8267 6.1498 17.0698 6.94605 17.9554 8.07542L18.0131 8.12499Z" fill="#3959FF"/>
</g>
<defs>
<clipPath id="clip0_711_5017">
<rect width="26" height="26" fill="white"/>
</clipPath>
</defs>
</svg>
