<svg width="32" height="32" viewBox="0 0 32 32" fill="none" xmlns="http://www.w3.org/2000/svg">
<g clip-path="url(#clip0_709_1617)">
<path d="M21 19C20.4696 19 19.9609 19.2107 19.5858 19.5858C19.2107 19.9609 19 20.4696 19 21C19 21.5304 19.2107 22.0391 19.5858 22.4142C19.9609 22.7893 20.4696 23 21 23C21.5304 23 22.0391 22.7893 22.4142 22.4142C22.7893 22.0391 23 21.5304 23 21C23 20.4696 22.7893 19.9609 22.4142 19.5858C22.0391 19.2107 21.5304 19 21 19Z" fill="#008726"/>
<path d="M7 5C6.46957 5 5.96086 5.21071 5.58579 5.58579C5.21071 5.96086 5 6.46957 5 7C5 7.53043 5.21071 8.03914 5.58579 8.41421C5.96086 8.78929 6.46957 9 7 9C7.53043 9 8.03914 8.78929 8.41421 8.41421C8.78929 8.03914 9 7.53043 9 7C9 6.46957 8.78929 5.96086 8.41421 5.58579C8.03914 5.21071 7.53043 5 7 5Z" fill="#008726"/>
<path d="M27 31C24.79 31 23 29.2 23 27C23 24.79 24.79 23 27 23C29.2 23 31 24.79 31 27C30.99 29.2 29.2 30.99 27 31ZM27 25C25.89 25 25 25.89 25 27C25 28.1 25.89 29 27 29C28.1 29 29 28.1 29 27C28.99 25.89 28.1 25 27 25Z" fill="#008726"/>
<path d="M30 16.0001C29.97 8.27011 23.72 2.02011 16 2.00011C13.61 1.96011 11.25 2.58011 9.19999 3.80011L10.3 5.50011C11.08 5.12011 11.88 4.79011 12.7 4.50011C11.04 7.76011 10.12 11.3391 9.99999 14.9991H3.99999C4.10999 13.3391 4.58999 11.7381 5.39999 10.2981L3.89999 8.99811C2.64999 11.1181 1.98999 13.5281 1.99999 15.9981V15.9971C1.98999 23.7271 8.25999 29.9871 15.99 29.9971C17.77 30.0071 19.54 29.6671 21.19 28.9971L20.59 27.0971C18.95 27.7971 17.16 28.0971 15.39 27.9971H15.389C13.249 24.7171 12.079 20.9071 11.989 16.9971H29.889C29.969 16.6671 29.999 16.3271 29.989 15.9971L30 16.0001ZM12.8 27.6001C10.81 27.0001 8.98999 25.9401 7.49999 24.5001C5.50999 22.4601 4.27999 19.8201 3.99999 17.0001H9.99999C10.13 20.6901 11.09 24.3101 12.8 27.6001ZM12 15.0001H11.999C12.069 11.1001 13.219 7.29011 15.299 4.00011H16.699C18.769 7.29011 19.919 11.1001 19.999 15.0001H12ZM22 15.0001C21.92 11.2901 20.96 7.66011 19.2 4.40011C24.01 5.78011 27.47 10.0001 27.9 15.0001H22Z" fill="#008726"/>
</g>
<defs>
<clipPath id="clip0_709_1617">
<rect width="32" height="32" fill="white"/>
</clipPath>
</defs>
</svg>
