<svg width="26" height="26" viewBox="0 0 26 26" fill="none" xmlns="http://www.w3.org/2000/svg">
<g clip-path="url(#clip0_711_5032)">
<path d="M7.3125 4.0625C7.09701 4.0625 6.89035 4.1481 6.73798 4.30048C6.5856 4.45285 6.5 4.65951 6.5 4.875C6.5 5.09049 6.5856 5.29715 6.73798 5.44952C6.89035 5.6019 7.09701 5.6875 7.3125 5.6875C7.52799 5.6875 7.73465 5.6019 7.88702 5.44952C8.0394 5.29715 8.125 5.09049 8.125 4.875C8.125 4.65951 8.0394 4.45285 7.88702 4.30048C7.73465 4.1481 7.52799 4.0625 7.3125 4.0625Z" fill="#3959FF"/>
<path d="M21.125 1.625H4.875C3.97312 1.625 3.25 2.34812 3.25 3.25V6.5C3.25 7.39375 3.97312 8.125 4.875 8.125H12.1875V11.375H13.8125V8.125H21.125C22.0187 8.125 22.75 7.39375 22.75 6.5V3.25C22.75 2.34812 22.0187 1.625 21.125 1.625ZM21.125 6.5H4.875V3.25H21.125V6.5Z" fill="#3959FF"/>
<path d="M13.8125 22.75V21.125H12.1875V22.75H3.25V24.375H22.75V22.75H13.8125Z" fill="#3959FF"/>
<path d="M7.3125 15.4375C7.09701 15.4375 6.89035 15.5231 6.73798 15.6755C6.5856 15.8278 6.5 16.0345 6.5 16.25C6.5 16.4655 6.5856 16.6722 6.73798 16.8245C6.89035 16.9769 7.09701 17.0625 7.3125 17.0625C7.52799 17.0625 7.73465 16.9769 7.88702 16.8245C8.0394 16.6722 8.125 16.4655 8.125 16.25C8.125 16.0345 8.0394 15.8278 7.88702 15.6755C7.73465 15.5231 7.52799 15.4375 7.3125 15.4375Z" fill="#3959FF"/>
<path d="M4.875 19.5H21.125C22.0187 19.5 22.75 18.7688 22.75 17.875V14.625C22.75 13.7231 22.0187 13 21.125 13H4.875C3.97312 13 3.25 13.7231 3.25 14.625V17.875C3.25 18.7688 3.97312 19.5 4.875 19.5ZM4.875 14.625H21.125V17.875H4.875V14.625Z" fill="#3959FF"/>
</g>
<defs>
<clipPath id="clip0_711_5032">
<rect width="26" height="26" fill="white"/>
</clipPath>
</defs>
</svg>
