<svg width="32" height="32" viewBox="0 0 32 32" fill="none" xmlns="http://www.w3.org/2000/svg">
<g clip-path="url(#clip0_718_4650)">
<path d="M16 2C8.26 2 2 8.26 2 16C2 23.73 8.26 30 16 30C23.73 30 30 23.73 30 16C29.99 8.27 23.72 2 16 2ZM21 5.1C22.05 5.58 23.04 6.219 23.91 6.989L23.49 7.979H20.98L21 5.1ZM13.37 27.69C6.901 26.25 2.83 19.85 4.26 13.4C4.81 10.89 6.15 8.64 8.09 6.96L9.43 8.98H12.77L11.27 12.98H7.24L5.85 17.12L8.41 20.97H13.41L14.84 23.11L13.37 27.69ZM15.99 27.98C15.78 27.98 15.58 27.96 15.38 27.95L16.77 23.76C16.96 23.17 16.88 22.53 16.53 22.01L15.09 19.86H15.089C14.709 19.3 14.089 18.96 13.419 18.96H9.48L8.04 16.81L8.65 14.95H10.92V16.95H12.92V14.13L15.85 6.3L13.97 5.59L13.46 6.94H10.43L9.62 5.72V5.71C12.38 3.98 15.74 3.47 18.89 4.31V7.91C18.89 9.01 19.78 9.9 20.89 9.91H23.47C24 9.91 24.51 9.7 24.88 9.32L25.02 9.17L25.3 8.49C26.1 9.51 26.74 10.66 27.17 11.89H22.46C21.48 11.88 20.64 12.59 20.48 13.55L19.88 16.99C19.73 17.82 20.12 18.66 20.87 19.07L23.03 20.53L24.48 24.17C22.22 26.53 19.1 27.86 15.83 27.86L15.99 27.98ZM24.8 19.32L22.08 17.48L21.98 17.42L22.57 13.97H27.79C28.31 16.92 27.68 19.95 26.04 22.46L24.8 19.32Z" fill="white"/>
</g>
<defs>
<clipPath id="clip0_718_4650">
<rect width="32" height="32" fill="white"/>
</clipPath>
</defs>
</svg>
