<svg width="32" height="32" viewBox="0 0 32 32" fill="none" xmlns="http://www.w3.org/2000/svg">
<g clip-path="url(#clip0_718_4661)">
<path d="M26 14H24V16H26C27.65 16 28.99 17.34 29 19V23H31V19C30.99 16.23 28.76 14 26 14Z" fill="white"/>
<path d="M24 4C25.65 4 27 5.34 27 7C27 8.65 25.65 10 24 10C22.34 10 21 8.65 21 7C21 5.34 22.34 4 24 4ZM24 2C21.23 2 19 4.23 19 7C19 9.76 21.23 12 24 12C26.76 12 29 9.76 29 7C29 4.23 26.76 2 24 2Z" fill="white"/>
<path d="M23 30H21V28C20.99 26.34 19.65 25 18 25H14C12.34 25 11 26.34 11 28V30H9V28C9 25.23 11.23 22.999 14 22.999H18C20.76 22.999 22.99 25.229 23 27.999V30Z" fill="white"/>
<path d="M16 13C17.65 13 19 14.34 19 16C19 17.65 17.65 19 16 19C14.34 19 13 17.65 13 16C13 14.34 14.34 13 16 13ZM16 11C13.23 11 11 13.23 11 16C11 18.76 13.23 21 16 21C18.76 21 21 18.76 21 16C21 13.23 18.76 11 16 11Z" fill="white"/>
<path d="M8.00002 14H6.00002C3.23002 14 0.999023 16.23 0.999023 19V23H2.99902V19C2.99902 17.34 4.33902 16 5.99902 16H7.99902L8.00002 14Z" fill="white"/>
<path d="M8 4C9.65 4 11 5.34 11 7C11 8.65 9.65 10 8 10C6.34 10 5 8.65 5 7C5 5.34 6.34 4 8 4ZM8 2C5.23 2 3 4.23 3 7C3 9.76 5.23 12 8 12C10.76 12 13 9.76 13 7C13 4.23 10.76 2 8 2Z" fill="white"/>
</g>
<defs>
<clipPath id="clip0_718_4661">
<rect width="32" height="32" fill="white"/>
</clipPath>
</defs>
</svg>
