<svg width="32" height="32" viewBox="0 0 32 32" fill="none" xmlns="http://www.w3.org/2000/svg">
<g clip-path="url(#clip0_712_2768)">
<path d="M26 14.1V2H21V4H24V6H21V8H24V14.1C22.3 14.5 21 16.1 21 18C21 20.2 22.8 22 25 22C27.2 22 29 20.2 29 18C29 16.1 27.7 14.6 26 14.1ZM25 20C23.9 20 23 19.1 23 18C23 16.9 23.9 16 25 16C26.1 16 27 16.9 27 18C27 19.1 26.1 20 25 20Z" fill="white"/>
<path d="M15 31L9.5 27.8C6.1 25.8 4 22.2 4 18.3V4C4 2.9 4.9 2 6 2H18V4H6V18.3C6 21.5 7.7 24.5 10.5 26.1L15 28.8L19.5 26.1C20.6 25.4 21.6 24.6 22.3 23.5L23.9 24.6C23 25.9 21.8 27 20.4 27.8L15 31Z" fill="white"/>
</g>
<defs>
<clipPath id="clip0_712_2768">
<rect width="32" height="32" fill="white"/>
</clipPath>
</defs>
</svg>
