<svg width="92" height="25" viewBox="0 0 92 25" fill="none" xmlns="http://www.w3.org/2000/svg">
<path d="M23.8516 0H28.2553V9.94398H28.6747C29.3738 8.33333 30.9815 6.86275 34.162 6.86275C38.0066 6.86275 40.9075 9.62885 40.9075 14.1457V24.5098H36.5037V14.5658C36.5037 12.1499 35.1057 10.7143 32.5892 10.7143C29.7582 10.7143 28.2553 12.465 28.2553 15.5462V24.5098H23.8516V0Z" fill="#141718"/>
<path d="M42.8559 15.8263C42.8559 10.3641 46.8403 6.65266 51.9431 6.65266C57.0459 6.65266 61.0303 10.3641 61.0303 15.8263C61.0303 21.2885 57.0459 25 51.9431 25C46.8403 25 42.8559 21.2885 42.8559 15.8263ZM47.2597 15.8263C47.2597 18.9776 49.1471 21.0784 51.9431 21.0784C54.7392 21.0784 56.6265 18.9776 56.6265 15.8263C56.6265 12.6751 54.7392 10.5742 51.9431 10.5742C49.1471 10.5742 47.2597 12.6751 47.2597 15.8263Z" fill="#141718"/>
<path d="M62.6473 12.0448C62.6473 8.82353 65.5831 6.65266 69.6024 6.65266C73.1674 6.65266 75.6838 8.22829 78.0255 10.6793L74.845 13.2003C73.5169 11.6247 71.7694 10.2241 69.4626 10.2241C67.82 10.2241 66.9112 10.9244 66.9112 11.9748C66.9112 13.2353 68.2044 13.5504 70.0219 13.7605L70.616 13.8305C76.1732 14.4958 78.2352 15.9314 78.2352 19.1176C78.2352 22.514 75.0547 25 70.4413 25C65.653 25 62.9968 22.549 61.389 20.098L64.8841 17.8922C65.9676 20.1681 68.3093 21.3585 70.5461 21.3585C72.3286 21.3585 73.9713 20.5882 73.9713 19.2227C73.9713 17.9272 72.1888 17.6821 70.3015 17.472L69.7073 17.402C64.8492 16.8417 62.6473 15.2661 62.6473 12.0448Z" fill="#141718"/>
<path d="M78.4384 7.14286H82.8422V1.7507H87.2459V7.14286H91.9992V10.9244H87.2459V19.6779C87.2459 20.3782 87.5954 20.7283 88.2246 20.7283H91.0206V24.5098H86.2673C84.3101 24.5098 82.8422 23.1092 82.8422 21.1485V10.9244H78.4384V7.14286Z" fill="#141718"/>
<path d="M10.2534 0H14.6478L4.39433 25H0L10.2534 0Z" fill="#3959FF"/>
<path d="M19.4573 0H23.8517L13.5982 25H9.2039L19.4573 0Z" fill="#3959FF"/>
</svg>
