<svg width="32" height="32" viewBox="0 0 32 32" fill="none" xmlns="http://www.w3.org/2000/svg">
<g clip-path="url(#clip0_712_2940)">
<path d="M26 16C26 14.39 25.6 12.8 24.86 11.38L23.36 12.87C23.78 13.85 23.99 14.91 23.99 15.99L26 16Z" fill="white"/>
<path d="M23.41 9.99996L21.99 8.57996L17.27 13.29C16.86 13.09 16.43 12.99 15.98 12.98C14.32 12.98 12.98 14.32 12.98 15.98C12.98 17.63 14.32 18.98 15.98 18.98C17.63 18.98 18.98 17.63 18.98 15.98C18.97 15.53 18.87 15.09 18.67 14.69L23.41 9.99996ZM15.99 17C15.43 17 14.99 16.55 14.99 16C14.99 15.44 15.43 15 15.99 15C16.54 15 16.99 15.44 16.99 16C16.98 16.55 16.54 16.99 15.99 17Z" fill="white"/>
<path d="M16.0001 8.00001C17.0701 7.99001 18.1301 8.21001 19.1201 8.63001L20.6101 7.13001C15.7201 4.57001 9.68006 6.45001 7.13006 11.34C6.37006 12.77 5.98006 14.36 5.99006 15.98H7.99006H7.98006C7.98006 11.56 11.5601 7.98001 15.9801 7.98001L16.0001 8.00001Z" fill="white"/>
<path d="M16 30C8.26 30 2 23.73 2 16C2 8.26 8.26 2 16 2C23.73 2 30 8.26 30 16C29.99 23.72 23.72 29.99 16 30ZM16 4C9.37 4 4 9.37 4 16C4 22.62 9.37 28 16 28C22.62 28 28 22.62 28 16V15.999C27.99 9.369 22.62 4 16 4Z" fill="white"/>
</g>
<defs>
<clipPath id="clip0_712_2940">
<rect width="32" height="32" fill="white"/>
</clipPath>
</defs>
</svg>
